<svg width="20" height="20" viewBox="0 0 20 20" fill="none" xmlns="http://www.w3.org/2000/svg">
  <path d="M10.6523 14.6509C10.7397 14.738 10.809 14.8415 10.8563 14.9554C10.9037 15.0694 10.928 15.1916 10.928 15.3149C10.928 15.4383 10.9037 15.5605 10.8563 15.6745C10.809 15.7884 10.7397 15.8919 10.6523 15.979L10.1882 16.4431C9.30886 17.3224 8.1162 17.8164 6.8726 17.8164C5.62899 17.8164 4.43633 17.3224 3.55697 16.4431C2.67761 15.5637 2.18359 14.371 2.18359 13.1274C2.18359 11.8838 2.67761 10.6912 3.55697 9.81181L5.44135 7.92822C6.28625 7.08122 7.42305 6.58933 8.61886 6.55331C9.81468 6.51729 10.979 6.93986 11.8734 7.73447C11.9657 7.81655 12.041 7.91601 12.0949 8.02717C12.1488 8.13833 12.1802 8.25902 12.1875 8.38235C12.1948 8.50568 12.1777 8.62923 12.1372 8.74595C12.0967 8.86266 12.0336 8.97026 11.9515 9.06259C11.8694 9.15493 11.77 9.2302 11.6588 9.28409C11.5476 9.33799 11.4269 9.36947 11.3036 9.37672C11.1803 9.38398 11.0567 9.36687 10.94 9.32638C10.8233 9.28588 10.7157 9.2228 10.6234 9.14072C10.0871 8.66441 9.38903 8.41102 8.67206 8.43237C7.95509 8.45371 7.27337 8.74819 6.76635 9.25556L4.88353 11.1368C4.356 11.6643 4.05964 12.3798 4.05964 13.1259C4.05964 13.8719 4.356 14.5874 4.88353 15.1149C5.41107 15.6425 6.12655 15.9388 6.8726 15.9388C7.61864 15.9388 8.33413 15.6425 8.86166 15.1149L9.32572 14.6509C9.41279 14.5637 9.51618 14.4946 9.62999 14.4474C9.74381 14.4002 9.8658 14.3759 9.989 14.3759C10.1122 14.3759 10.2342 14.4002 10.348 14.4474C10.4618 14.4946 10.5652 14.5637 10.6523 14.6509ZM16.4398 3.55713C15.5597 2.67912 14.3673 2.18604 13.1242 2.18604C11.881 2.18604 10.6886 2.67912 9.80853 3.55713L9.34447 4.02119C9.16835 4.19731 9.06941 4.43618 9.06941 4.68525C9.06941 4.93432 9.16835 5.17319 9.34447 5.34931C9.52059 5.52543 9.75946 5.62438 10.0085 5.62438C10.2576 5.62438 10.4965 5.52543 10.6726 5.34931L11.1367 4.88525C11.6642 4.35772 12.3797 4.06135 13.1257 4.06135C13.8718 4.06135 14.5873 4.35772 15.1148 4.88525C15.6423 5.41278 15.9387 6.12827 15.9387 6.87431C15.9387 7.62036 15.6423 8.33584 15.1148 8.86338L13.2312 10.7478C12.7237 11.2549 12.0416 11.549 11.3245 11.5697C10.6073 11.5905 9.90934 11.3364 9.37338 10.8595C9.28104 10.7774 9.17344 10.7143 9.05673 10.6738C8.94001 10.6333 8.81646 10.6162 8.69313 10.6235C8.56981 10.6307 8.44911 10.6622 8.33795 10.7161C8.22679 10.77 8.12733 10.8453 8.04525 10.9376C7.96318 11.0299 7.90009 11.1375 7.8596 11.2542C7.8191 11.371 7.802 11.4945 7.80925 11.6178C7.8165 11.7412 7.84798 11.8619 7.90188 11.973C7.95578 12.0842 8.03104 12.1836 8.12338 12.2657C9.01711 13.0601 10.1807 13.483 11.3759 13.4477C12.5712 13.4124 13.7078 12.9217 14.5531 12.0759L16.4374 10.1923C17.3165 9.31242 17.8104 8.1197 17.8109 6.87597C17.8113 5.63224 17.3182 4.43917 16.4398 3.55869V3.55713Z" fill="currentColor"/>
</svg>
