<svg width="14" height="16" viewBox="0 0 14 16" fill="none" xmlns="http://www.w3.org/2000/svg">
<path d="M6.99951 0.125C5.35908 0.126946 3.7864 0.779467 2.62644 1.93943C1.46648 3.09939 0.813958 4.67207 0.812012 6.3125C0.812012 11.6068 6.43701 15.6058 6.67651 15.7734C6.77123 15.8395 6.88398 15.875 6.99951 15.875C7.11504 15.875 7.22779 15.8395 7.32251 15.7734C7.56201 15.6058 13.187 11.6068 13.187 6.3125C13.1851 4.67207 12.5325 3.09939 11.3726 1.93943C10.2126 0.779467 8.63994 0.126946 6.99951 0.125ZM6.99992 4.0627C7.44493 4.0627 7.87995 4.19466 8.24996 4.4419C8.61997 4.68913 8.90836 5.04053 9.07865 5.45167C9.24895 5.8628 9.29351 6.3152 9.20669 6.75166C9.11987 7.18811 8.90558 7.58903 8.59091 7.90369C8.27625 8.21836 7.87533 8.43265 7.43888 8.51947C7.00242 8.60629 6.55002 8.56173 6.13889 8.39143C5.72775 8.22114 5.37635 7.93275 5.12912 7.56274C4.88188 7.19273 4.74992 6.75771 4.74992 6.3127C4.74992 6.01723 4.80811 5.72464 4.92118 5.45166C5.03425 5.17867 5.19998 4.93063 5.40891 4.72169C5.61785 4.51276 5.86589 4.34703 6.13888 4.23396C6.41186 4.12089 6.70445 4.0627 6.99992 4.0627Z" fill="#141518"/>
</svg>
