<svg width="23" height="23" viewBox="0 0 23 23" fill="none" xmlns="http://www.w3.org/2000/svg">
<path d="M21.6974 13.6962C19.9798 14.1735 18.1662 14.186 16.4421 13.7326C14.7181 13.2792 13.1453 12.376 11.8848 11.1154C10.6242 9.85485 9.721 8.28212 9.26755 6.55803C8.8141 4.83395 8.82667 3.02037 9.30395 1.30273L9.30423 1.30282C7.61009 1.77411 6.069 2.68108 4.83449 3.93336C3.59998 5.18565 2.71514 6.73955 2.26812 8.44025C1.82109 10.141 1.82749 11.9291 2.28667 13.6266C2.74584 15.324 3.64178 16.8716 4.88521 18.115C6.12865 19.3584 7.67618 20.2543 9.37365 20.7135C11.0711 21.1727 12.8593 21.179 14.56 20.732C16.2607 20.285 17.8146 19.4001 19.0668 18.1656C20.3191 16.9311 21.2261 15.39 21.6973 13.6958L21.6974 13.6962Z" stroke="white" stroke-width="2" stroke-linecap="round" stroke-linejoin="round"/>
</svg>
