<svg width="18" height="17" viewBox="0 0 18 17" fill="none" xmlns="http://www.w3.org/2000/svg">
<path d="M12.6562 13.7369C13.0459 13.5675 13.422 13.3685 13.7812 13.1416V15.875C13.7812 16.0242 13.722 16.1672 13.6165 16.2727C13.511 16.3782 13.3679 16.4375 13.2188 16.4375C13.0696 16.4375 12.9265 16.3782 12.821 16.2727C12.7155 16.1672 12.6562 16.0242 12.6562 15.875V13.7369ZM8.50369 5.48528C8.46893 5.55046 8.44735 5.62184 8.44017 5.69536C8.433 5.76888 8.44038 5.84309 8.46188 5.91375C8.48339 5.98442 8.51861 6.05016 8.56552 6.10721C8.61243 6.16427 8.67012 6.21153 8.7353 6.24629L12.0235 7.99998L13.2188 7.3625L9.2647 5.25368C9.19953 5.2189 9.12814 5.1973 9.05462 5.19011C8.9811 5.18293 8.90689 5.1903 8.83621 5.21181C8.76554 5.23332 8.6998 5.26854 8.64275 5.31546C8.58569 5.36239 8.53844 5.42009 8.50369 5.48528ZM17.7022 5.25368L9.2647 0.753676C9.18324 0.710227 9.09233 0.6875 9 0.6875C8.90767 0.6875 8.81676 0.710227 8.7353 0.753676L0.297798 5.25368C0.207842 5.30165 0.132615 5.37317 0.0801618 5.46058C0.0277081 5.548 0 5.64803 0 5.74998C0 5.85193 0.0277081 5.95196 0.0801618 6.03938C0.132615 6.1268 0.207842 6.19832 0.297798 6.24629L1.96875 7.13747V10.6335C1.96904 10.8766 2.04781 11.1132 2.19335 11.308C2.75056 12.0495 4.88809 14.4687 9 14.4687C10.2566 14.4802 11.5018 14.2299 12.6562 13.7336V8.33747L12.0235 7.99998L9 9.6125L2.801 6.30635L2.79698 6.30421L1.75781 5.74998L9 1.88746L16.2422 5.74998L15.203 6.30421L15.199 6.30635L13.2188 7.3625L13.4835 7.50368C13.5729 7.55226 13.6477 7.62392 13.7001 7.7112C13.7524 7.79848 13.7805 7.8982 13.7812 7.99998V13.1375C14.5591 12.652 15.2448 12.0327 15.8066 11.3081C15.9522 11.1133 16.031 10.8767 16.0312 10.6335V7.13747L17.7022 6.24629C17.7922 6.19831 17.8674 6.1268 17.9198 6.03938C17.9723 5.95196 18 5.85193 18 5.74998C18 5.64803 17.9723 5.548 17.9198 5.46058C17.8674 5.37316 17.7922 5.30164 17.7022 5.25367V5.25368Z" fill="#141518"/>
</svg>
