<svg width="18" height="18" viewBox="0 0 18 18" fill="none" xmlns="http://www.w3.org/2000/svg">
<path d="M4.50845 10.3922C4.51035 10.4303 4.50449 10.4684 4.49121 10.5041C4.47793 10.5399 4.45752 10.5726 4.43121 10.6002C4.4049 10.6278 4.37325 10.6498 4.33818 10.6648C4.3031 10.6798 4.26534 10.6875 4.2272 10.6875H1.12501C0.998048 10.6877 0.874757 10.6449 0.775184 10.5661C0.675611 10.4874 0.605612 10.3773 0.57657 10.2537C0.558487 10.1691 0.55932 10.0815 0.579012 9.99728C0.598703 9.91305 0.636765 9.8342 0.690476 9.76639C1.18675 9.10825 1.84521 8.59006 2.60157 8.26241C2.2695 7.95964 2.01482 7.58172 1.85884 7.16028C1.70287 6.73885 1.65015 6.28618 1.7051 5.84018C1.76004 5.39418 1.92106 4.96784 2.17466 4.59686C2.42826 4.22589 2.76706 3.92108 3.16268 3.70797C3.55831 3.49486 3.99924 3.37965 4.44854 3.37199C4.89785 3.36433 5.34245 3.46444 5.74511 3.66394C6.14777 3.86344 6.49676 4.15652 6.76286 4.51864C7.02896 4.88075 7.20442 5.30135 7.27454 5.74522C7.28359 5.80491 7.2729 5.86592 7.24409 5.91898C7.21528 5.97203 7.16992 6.01422 7.11493 6.03913C6.33474 6.39981 5.67399 6.97614 5.21066 7.7001C4.74733 8.42406 4.50075 9.26545 4.50001 10.125C4.50001 10.215 4.50001 10.3036 4.50845 10.3922ZM17.3053 9.76569C16.8102 9.10831 16.1532 8.5904 15.3984 8.26241C15.7305 7.95964 15.9852 7.58172 16.1412 7.16028C16.2971 6.73885 16.3499 6.28618 16.2949 5.84018C16.24 5.39418 16.079 4.96784 15.8254 4.59686C15.5718 4.22589 15.233 3.92108 14.8373 3.70797C14.4417 3.49486 14.0008 3.37965 13.5515 3.37199C13.1022 3.36433 12.6576 3.46444 12.2549 3.66394C11.8522 3.86344 11.5033 4.15652 11.2372 4.51864C10.9711 4.88075 10.7956 5.30135 10.7255 5.74522C10.7164 5.80491 10.7271 5.86592 10.7559 5.91898C10.7847 5.97203 10.8301 6.01422 10.8851 6.03913C11.6653 6.39981 12.326 6.97614 12.7894 7.7001C13.2527 8.42406 13.4993 9.26545 13.5 10.125C13.5 10.215 13.5 10.3036 13.4916 10.3922C13.4897 10.4303 13.4955 10.4684 13.5088 10.5041C13.5221 10.5399 13.5425 10.5726 13.5688 10.6002C13.5951 10.6278 13.6268 10.6498 13.6618 10.6648C13.6969 10.6798 13.7347 10.6875 13.7728 10.6875H16.875C17.002 10.6877 17.1253 10.6449 17.2248 10.5661C17.3244 10.4874 17.3944 10.3773 17.4234 10.2537C17.4416 10.1689 17.4408 10.0812 17.421 9.99679C17.4012 9.91241 17.3629 9.83348 17.3088 9.76569H17.3053ZM11.0475 12.8018C11.6076 12.3729 12.0192 11.7792 12.2244 11.1043C12.4297 10.4293 12.4183 9.70705 12.1918 9.03893C11.9654 8.37081 11.5353 7.79044 10.9619 7.3794C10.3886 6.96835 9.70089 6.7473 8.99544 6.7473C8.28998 6.7473 7.60226 6.96835 7.02894 7.3794C6.45561 7.79044 6.02549 8.37081 5.79904 9.03893C5.57259 9.70705 5.5612 10.4293 5.76645 11.1043C5.9717 11.7792 6.38329 12.3729 6.94337 12.8018C5.94953 13.2324 5.11965 13.9699 4.57524 14.9062C4.52587 14.9918 4.49988 15.0888 4.49988 15.1875C4.49989 15.2863 4.52589 15.3833 4.57527 15.4688C4.62466 15.5543 4.69568 15.6253 4.78121 15.6747C4.86674 15.724 4.96376 15.75 5.06251 15.75H12.9375C13.0363 15.75 13.1333 15.724 13.2188 15.6747C13.3043 15.6253 13.3754 15.5543 13.4247 15.4688C13.4741 15.3833 13.5001 15.2863 13.5001 15.1875C13.5001 15.0888 13.4741 14.9918 13.4248 14.9062C12.8792 13.9693 12.0478 13.2317 11.0524 12.8018H11.0475Z" fill="currentColor"/>
</svg>
