<svg width="120" height="120" viewBox="0 0 120 120" fill="none" xmlns="http://www.w3.org/2000/svg">
<path fill-rule="evenodd" clip-rule="evenodd" d="M58.9379 0L58.9556 53.4663L52.5793 59.8967H19.2852V9.6295H34.8601C49.6473 9.6295 50.4386 9.62594 50.4987 9.56894C50.534 9.53331 52.4451 7.3673 54.7483 4.7524L58.9379 0ZM49.181 24.4318C49.1457 25.3972 49.1175 26.6192 49.0927 27.7699L49.0468 29.8575C48.252 30.0926 47.7927 30.2387 47.5101 30.3349C47.0933 30.4774 46.9909 30.5023 46.9626 30.4631C46.9449 30.4346 46.1996 29.5048 45.3129 28.3933L43.695 26.3734C42.9708 26.7225 42.2396 27.0894 41.6073 27.41L40.4557 27.9943C41.6214 31.6673 41.9676 32.7645 41.9817 32.8037C41.9959 32.8643 41.9252 32.9213 41.5154 33.1778C41.247 33.3416 40.8125 33.6231 40.551 33.8012C40.2896 33.9793 40.0565 34.1361 40.0318 34.1503C40.0035 34.1646 39.3606 33.6302 38.2655 32.679L36.5416 31.1792C36.4038 31.311 35.7468 31.9024 34.9873 32.5757C34.2313 33.249 33.6131 33.8155 33.6131 33.8368C33.6131 33.8546 34.1995 34.6348 34.9166 35.5647C35.6302 36.4945 36.2343 37.2782 36.2555 37.3032C36.2873 37.3388 36.2096 37.435 35.9234 37.7307C35.7185 37.9409 35.4183 38.2651 35.2487 38.4503C35.0827 38.6356 34.8071 38.9562 34.634 39.1628C34.4645 39.3694 34.3055 39.5404 34.2843 39.5476C34.2631 39.5511 33.3164 39.2056 32.1789 38.7745C31.0414 38.3434 30.1124 37.9943 30.1089 37.9979C30.1089 38.0014 29.685 38.6427 29.1657 39.4229C28.6464 40.1995 28.226 40.8514 28.2331 40.8657C28.2366 40.8835 28.8831 41.5034 29.6708 42.2444C30.4586 42.9854 31.1722 43.6587 31.2605 43.7407L31.4194 43.8938C31.3029 44.0791 31.0944 44.4852 30.8825 44.9163C30.6705 45.3473 30.4021 45.9102 30.2855 46.1667C30.1371 46.5052 30.0629 46.6334 30.0241 46.6227C29.9958 46.6156 29.042 46.4553 27.9046 46.27C26.7671 46.0848 25.838 45.9352 25.8345 45.9423C25.831 45.9459 25.566 46.783 25.2445 47.8019C24.9231 48.8208 24.6687 49.6651 24.6829 49.6794C24.697 49.6901 25.5519 50.1603 26.5798 50.7268C27.6114 51.2896 28.4592 51.7528 28.4627 51.7528C28.4698 51.7563 28.4168 52.0698 28.3497 52.451C28.279 52.8322 28.1907 53.363 28.1518 53.6267C28.113 53.8903 28.0706 54.1183 28.0565 54.129C28.0423 54.1397 27.2192 54.2822 26.2266 54.4425C25.2375 54.6028 24.3261 54.7488 24.206 54.7702L23.9834 54.8023V58.2223H30.7836C30.826 56.9932 30.8542 56.3662 30.8754 56.0314C30.8931 55.7 30.9425 55.098 30.9814 54.6954C31.0203 54.2928 31.0944 53.6837 31.1404 53.3416C31.1898 52.9996 31.2817 52.4225 31.3488 52.0591C31.4159 51.6958 31.536 51.1115 31.6173 50.7588C31.6985 50.4061 31.8433 49.8361 31.9387 49.4941C32.0341 49.1521 32.186 48.6462 32.2743 48.3719C32.3626 48.0976 32.5216 47.6487 32.6205 47.3744C32.7229 47.1001 32.889 46.6762 32.9914 46.4304C33.0939 46.1845 33.2881 45.7463 33.4259 45.4507C33.5637 45.1585 33.8004 44.6776 33.9558 44.3819C34.1112 44.0898 34.3656 43.6302 34.521 43.3666C34.68 43.103 34.959 42.6541 35.1463 42.3691C35.337 42.0841 35.6549 41.6281 35.8598 41.3538C36.0612 41.0794 36.3862 40.6626 36.5805 40.4275C36.7748 40.1924 37.1174 39.8005 37.3435 39.5547C37.566 39.3089 37.9546 38.9099 38.2054 38.6641C38.4562 38.4182 38.8519 38.0513 39.085 37.8447C39.3182 37.6381 39.6926 37.3245 39.9152 37.1464C40.1413 36.9647 40.5652 36.6441 40.8584 36.4339C41.1551 36.2202 41.6002 35.9138 41.8475 35.757C42.0983 35.5967 42.5151 35.3438 42.7765 35.1906C43.038 35.0374 43.5325 34.7702 43.8716 34.5992C44.2108 34.4247 44.73 34.1753 45.0197 34.047C45.3129 33.9152 45.7721 33.7228 46.0441 33.616C46.3161 33.5091 46.793 33.3345 47.1039 33.2276C47.4148 33.1208 47.9093 32.9605 48.199 32.875C48.4922 32.7895 48.9514 32.6612 49.2234 32.5935C49.4954 32.5258 49.9476 32.4225 50.2302 32.362C50.5128 32.305 50.9826 32.2159 51.2723 32.166C51.5655 32.1161 52.0495 32.0449 52.3497 32.0057C52.65 31.9665 53.1693 31.9095 53.4978 31.8774C53.8299 31.8489 54.5293 31.8098 55.0521 31.7884C55.5785 31.7706 56.2956 31.767 56.6524 31.7813L57.2953 31.8062V28.4218C56.1048 28.4646 55.4513 28.4788 55.0733 28.4824L54.3845 28.4931C52.7383 24.8913 52.2473 23.8475 52.2261 23.8475C52.2084 23.8511 51.5125 23.9829 50.6859 24.1432L49.181 24.4318ZM54.0277 33.3381C53.6992 33.3666 53.0951 33.4414 52.6853 33.502C52.2791 33.559 51.6679 33.6623 51.3253 33.73C50.9862 33.7976 50.4457 33.9188 50.1242 33.9972C49.8063 34.0755 49.3294 34.2038 49.0645 34.2822C48.8031 34.357 48.3332 34.5066 48.0224 34.6135C47.7115 34.7203 47.2346 34.8949 46.9626 35.0053C46.6906 35.1122 46.2455 35.2975 45.9735 35.4186C45.7015 35.5397 45.161 35.8033 44.7724 36.0064C44.3838 36.2059 43.8434 36.5052 43.5714 36.669C43.2994 36.8294 42.8401 37.125 42.5469 37.321C42.2573 37.5134 41.7804 37.8554 41.4872 38.0762C41.1975 38.2971 40.7595 38.6462 40.5157 38.8493C40.2755 39.0559 39.8375 39.4478 39.5443 39.7221C39.2546 39.9964 38.7989 40.4596 38.534 40.7517C38.269 41.0438 37.9052 41.4571 37.725 41.6744C37.5484 41.8881 37.2411 42.2836 37.0432 42.5472C36.8454 42.8108 36.5204 43.2775 36.3191 43.5803C36.1177 43.8832 35.828 44.3392 35.6797 44.5957C35.5278 44.8486 35.277 45.2975 35.1215 45.5932C34.9661 45.8853 34.7188 46.384 34.574 46.6975C34.4292 47.011 34.1995 47.549 34.0618 47.891C33.924 48.233 33.7156 48.803 33.5955 49.1557C33.4754 49.5084 33.2987 50.0677 33.2069 50.4026C33.1115 50.7339 32.9879 51.2077 32.9278 51.4535C32.8678 51.6993 32.7724 52.1304 32.7159 52.4154C32.6558 52.7004 32.5675 53.1813 32.518 53.4841C32.4686 53.787 32.3979 54.3 32.3591 54.6242C32.3202 54.9483 32.2637 55.4934 32.2319 55.8354C32.2037 56.1774 32.1683 56.8543 32.1542 57.3388L32.1259 58.2223H33.9982C33.9593 57.9872 33.9629 57.6559 33.9841 57.3317C34.0017 57.0075 34.0406 56.5764 34.0688 56.3698C34.1006 56.1632 34.1642 55.8283 34.2172 55.6217C34.2667 55.415 34.3691 55.0873 34.4468 54.8913C34.5245 54.6954 34.6482 54.4318 34.7259 54.3035C34.8001 54.1753 34.9378 53.9793 35.0297 53.8689C35.1251 53.7585 35.2558 53.6195 35.3229 53.5625C35.3935 53.5055 35.5278 53.4058 35.6231 53.3452C35.7221 53.2811 35.9269 53.1885 36.0824 53.135C36.3403 53.0495 36.4144 53.0424 36.8772 53.0424C37.3082 53.046 37.4459 53.0602 37.725 53.135C37.9122 53.1849 38.6329 53.4521 39.3323 53.73C40.0318 54.0043 43.0697 55.2013 46.0795 56.384L51.5549 58.5358L57.6556 52.3976C53.3282 41.6566 52.0389 38.4182 52 38.2722C51.9611 38.1261 51.9188 37.8839 51.9046 37.7378C51.8905 37.5561 51.9046 37.3851 51.9399 37.2034C51.9717 37.0574 52.0353 36.8543 52.0848 36.7581C52.1307 36.6584 52.2367 36.4909 52.3215 36.3876C52.4062 36.2807 52.5864 36.1062 52.7206 35.9993C52.8584 35.8924 53.1269 35.7285 53.3212 35.6323C53.5155 35.5362 53.8193 35.4115 53.9924 35.3545C54.169 35.2975 54.494 35.2084 54.7165 35.1585C54.9426 35.1087 55.2994 35.0445 55.5113 35.0125C55.7268 34.984 56.1083 34.9412 56.3592 34.9234C56.6135 34.902 56.9279 34.8878 57.0586 34.8878H57.2953V33.2134C56.1331 33.2205 55.5325 33.2348 55.2111 33.2526C54.8932 33.2668 54.3597 33.306 54.0277 33.3381ZM61.1457 0.110438C61.1952 0.167439 63.1028 2.33345 69.5355 9.6295H100.71L100.693 59.8789L67.3807 59.8967L61.0044 53.4663L61.0009 26.7617C60.9974 10.6128 61.008 0.0463128 61.0256 0.0320627C61.0433 0.0142501 61.0998 0.0498753 61.1457 0.110438ZM73.824 28.1261C73.6757 28.3648 73.4319 28.7816 73.28 29.0452C73.1281 29.3089 72.8208 29.8931 72.5912 30.3456C72.3651 30.7944 72.1037 31.3395 72.0118 31.5568C71.9165 31.7706 71.754 32.1803 71.648 32.4653C71.542 32.7503 71.4113 33.1564 71.3548 33.3737C71.3018 33.5875 71.2382 33.9081 71.217 34.0862C71.1923 34.2608 71.1888 34.471 71.2029 34.5493C71.217 34.6313 71.2735 34.7417 71.3371 34.8094C71.3972 34.8771 71.5314 34.984 71.6374 35.0481C71.7469 35.1122 71.9377 35.2084 72.0613 35.2618C72.1885 35.3153 72.3333 35.3723 72.3792 35.3901L72.4675 35.4222C72.3227 35.5718 72.1991 35.7463 72.0966 35.9031C71.9977 36.0598 71.8211 36.3805 71.7116 36.6156C71.5985 36.8507 71.4325 37.2355 71.3477 37.4706C71.2594 37.7057 71.1252 38.1226 71.0475 38.3969C70.9662 38.6712 70.8461 39.1521 70.779 39.4656C70.7119 39.7791 70.62 40.2351 70.5812 40.4809C70.5423 40.7268 70.4681 41.2398 70.4222 41.6209C70.3727 42.0021 70.295 42.4581 70.2456 42.6363C70.1996 42.8108 70.076 43.1956 69.9771 43.4913C69.8747 43.7834 69.691 44.2643 69.5638 44.56C69.4366 44.8522 69.1823 45.3972 68.9986 45.7713C68.8149 46.1418 68.5429 46.6655 68.3981 46.9291C68.2497 47.1927 67.9706 47.6737 67.7763 47.9979C67.582 48.3221 67.2253 48.8885 66.985 49.2626C66.7413 49.6331 66.3103 50.2672 66.0277 50.6698C65.7416 51.0723 65.3459 51.6103 65.1481 51.8703C64.9503 52.1304 64.7843 52.3548 64.7843 52.3691C64.7843 52.3833 65.625 53.2455 66.6494 54.2786L68.5111 56.1632L71.754 51.8988L74.8308 46.9825C77.3212 42.1518 78.1125 40.6448 78.1973 40.5166C78.2821 40.3883 78.4729 40.1461 78.6248 39.9751C78.7767 39.8076 79.0098 39.5654 79.144 39.4407C79.2818 39.316 79.5114 39.1236 79.6563 39.0132C79.8046 38.9027 80.0272 38.7567 80.1508 38.6854C80.278 38.6177 80.4758 38.5358 80.5924 38.5002L80.8043 38.4396C81.1329 38.7994 81.3342 39.0773 81.4578 39.2911C81.585 39.5048 81.8005 39.9359 81.9383 40.2494C82.0796 40.5629 82.2845 41.0688 82.394 41.3716C82.507 41.6744 82.6836 42.1874 82.7896 42.5116C82.8956 42.8358 83.0899 43.4913 83.2241 43.9722C83.3619 44.4532 83.5067 44.9875 83.5526 45.1657L83.6374 45.4863C87.2759 49.4442 88.3534 50.5949 88.3816 50.5949C88.4134 50.5985 88.5653 50.5059 88.7243 50.3954C88.8832 50.2814 89.1764 50.0428 89.3707 49.8682C89.5686 49.6901 89.8936 49.3659 90.0914 49.1414C90.2892 48.9206 90.5965 48.5501 90.7767 48.3221C90.9604 48.0941 91.2783 47.6594 91.4867 47.3566C91.6987 47.0538 92.0131 46.5729 92.1897 46.2879C92.3628 46.0029 92.6383 45.5397 92.7973 45.2547C92.9598 44.9697 93.2707 44.3855 93.4897 43.9544C93.7087 43.5233 94.0337 42.85 94.2139 42.4581C94.3905 42.0663 94.659 41.4571 94.8038 41.1044C94.9486 40.7517 95.1641 40.2138 95.2807 39.9109C95.3937 39.6081 95.6021 39.0452 95.7364 38.6641C95.8741 38.2829 96.0826 37.6416 96.2062 37.239C96.3298 36.8365 96.5029 36.2202 96.5912 35.8675C96.6796 35.5148 96.7926 35.016 96.8385 34.7631C96.888 34.5066 96.9551 34.1005 96.9904 33.8546C97.0328 33.5483 97.0505 33.1778 97.0505 32.679C97.0505 32.0663 97.0399 31.8953 96.9763 31.6281C96.9374 31.4499 96.8633 31.2113 96.8103 31.0937C96.7184 30.8835 96.7184 30.8799 96.6054 30.9049C96.5418 30.9227 95.9907 31.0046 95.3761 31.0901C94.7649 31.1792 93.7864 31.3074 93.2035 31.3751C92.6207 31.4428 91.8047 31.5319 91.3843 31.5711C90.9674 31.6103 90.2927 31.6673 89.883 31.6958C89.4767 31.7278 88.689 31.767 88.1343 31.792C87.5727 31.8133 86.7425 31.824 86.255 31.8098C85.7746 31.7991 85.1847 31.7706 84.948 31.7528C84.7113 31.7314 84.3227 31.6922 84.0896 31.6601C83.8564 31.6316 83.4855 31.5639 83.2594 31.5141C83.0369 31.4642 82.726 31.3787 82.5706 31.3217C82.4152 31.2647 82.2668 31.2006 82.235 31.1828C82.1926 31.1543 82.2209 31.0509 82.4222 30.4809C82.5529 30.1104 82.6554 29.8076 82.6518 29.8041C82.6448 29.8005 81.4013 29.2768 79.8859 28.6391C78.3704 27.9979 77.1305 27.4813 77.1305 27.4849C77.127 27.492 77.0174 27.6844 76.8832 27.9124C76.6571 28.2936 76.6324 28.3256 76.5653 28.29C76.5264 28.2686 76.2262 28.1012 75.8941 27.923C75.5656 27.7414 75.1311 27.5098 74.9333 27.41C74.7354 27.3103 74.5376 27.2284 74.4987 27.2284C74.4528 27.2284 74.3716 27.3067 74.2621 27.4564C74.1702 27.5846 73.9724 27.8839 73.824 28.1261ZM19.2852 61.963H52.6147L58.9556 68.3577V94.1753C58.9556 108.375 58.9485 119.996 58.9379 119.996C58.9308 119.996 58.8779 119.964 58.8249 119.929C58.7719 119.893 58.4575 119.715 58.1254 119.533C57.7969 119.352 57.1928 119.031 56.7831 118.817C56.3768 118.607 55.741 118.29 55.37 118.115C55.0027 117.941 54.4233 117.67 54.0807 117.52C53.7415 117.367 53.0174 117.064 52.4734 116.844C51.9294 116.623 51.1769 116.331 50.7954 116.192C50.4174 116.056 49.7568 115.828 49.3294 115.686C48.902 115.543 48.1495 115.312 47.6514 115.169C47.1569 115.023 46.3161 114.792 45.7792 114.653C45.2458 114.514 44.2849 114.271 43.642 114.115C43.0026 113.958 41.9605 113.709 41.3282 113.563C40.6994 113.413 39.6185 113.167 38.9261 113.014C38.2372 112.861 37.1633 112.629 36.5416 112.497C35.9199 112.366 34.9272 112.155 34.3338 112.027C33.7438 111.902 32.9702 111.724 32.6205 111.635C32.2708 111.546 31.748 111.397 31.4548 111.3C31.1651 111.204 30.6493 111.015 30.3067 110.88C29.9676 110.745 29.4447 110.527 29.1409 110.395C28.8407 110.264 28.3708 110.046 28.0988 109.918C27.8268 109.786 27.3747 109.548 27.0921 109.391C26.813 109.23 26.4209 109.002 26.2266 108.878C26.0323 108.757 25.7073 108.536 25.5024 108.39C25.3011 108.24 24.9902 108.005 24.8136 107.866C24.6405 107.724 24.2978 107.424 24.0541 107.2C23.8139 106.975 23.443 106.601 23.231 106.366C23.0226 106.135 22.7047 105.753 22.5245 105.522C22.3479 105.29 22.1147 104.977 22.0123 104.827C21.9098 104.674 21.6943 104.336 21.5389 104.072C21.3835 103.808 21.1221 103.317 20.9596 102.985C20.7971 102.651 20.571 102.138 20.4544 101.845C20.3414 101.55 20.1718 101.079 20.08 100.794C19.9917 100.509 19.8468 99.9893 19.762 99.6366C19.6737 99.2839 19.5572 98.7068 19.5006 98.3541C19.4406 98.0014 19.3699 97.4956 19.3417 97.2319C19.2922 96.808 19.2852 94.7025 19.2852 79.3552V61.963ZM51.4772 65.9886C51.4383 66.0777 51.2794 66.4482 51.1204 66.808L50.8307 67.467C49.6403 67.6238 49.2376 67.6844 49.1634 67.7022C49.0892 67.72 48.9797 67.7805 48.9196 67.834C48.8596 67.8874 48.7889 67.9729 48.7642 68.0192C48.7395 68.0691 48.6759 68.4111 48.6264 68.7781C48.577 69.145 48.5134 69.4906 48.4887 69.544C48.4604 69.5974 48.3827 69.6936 48.312 69.7578C48.2414 69.8219 48.1319 69.8824 48.0683 69.8931C48.0047 69.9003 47.6832 69.9466 47.3512 69.9929C46.9167 70.0499 46.7189 70.0926 46.627 70.1461C46.5599 70.1888 46.4716 70.2886 46.4257 70.3776C46.3656 70.4952 46.3161 70.7446 46.2172 71.4393C46.1431 71.9736 46.0618 72.4296 46.0194 72.5436C45.9806 72.6541 45.9099 72.7966 45.8675 72.8643C45.8251 72.9355 45.7368 73.0424 45.6697 73.103C45.6061 73.1671 45.4719 73.2526 45.373 73.2953C45.2493 73.3488 45.1292 73.3737 44.9667 73.3701C44.8078 73.3701 44.6382 73.3345 44.4015 73.2561C44.2178 73.192 43.8434 73.046 43.5714 72.9284C43.2994 72.8144 42.5222 72.4403 41.8404 72.1019C41.1622 71.7635 40.272 71.3074 39.8622 71.0866C39.456 70.8693 39.0356 70.6626 38.9261 70.6341C38.7989 70.5949 38.6647 70.5807 38.5198 70.5949C38.4033 70.6056 38.2443 70.6413 38.1666 70.6733C38.0889 70.7054 37.9723 70.7659 37.9087 70.8087C37.8451 70.8514 37.559 71.1756 37.2764 71.5283C36.9902 71.881 36.5593 72.4118 36.3155 72.704C36.0753 72.9996 35.6761 73.4735 35.4324 73.7549C35.1886 74.0399 34.7365 74.56 34.4256 74.9127C34.1148 75.2654 33.539 75.8995 33.1504 76.3199C32.7618 76.7403 31.9917 77.549 31.4371 78.1154C30.886 78.6819 30.0488 79.5084 29.5825 79.9537C29.1162 80.399 28.5369 80.9476 28.2931 81.1685C28.0494 81.3929 27.5972 81.8026 27.2864 82.077C26.9755 82.3513 26.4032 82.85 26.0146 83.1813C25.6261 83.5126 24.8736 84.1396 24.3367 84.5707C23.8033 84.9982 23.1886 85.4899 22.9696 85.6537C22.7541 85.8212 22.5845 85.9672 22.5987 85.9779C22.6128 85.9886 22.9661 86.0456 23.3829 86.099C23.9799 86.1774 24.2166 86.1952 24.478 86.1774C24.6652 86.1632 24.9513 86.1311 25.1138 86.1026C25.2799 86.0741 25.5554 86.01 25.725 85.9601C25.8945 85.9102 26.2301 85.782 26.4668 85.6787C26.7035 85.5753 27.1062 85.3723 27.357 85.2298C27.6114 85.0873 28.0176 84.8379 28.2578 84.6776C28.5016 84.5137 28.9219 84.2002 29.1939 83.9793C29.4659 83.7549 30.3349 83.0353 31.1192 82.3762C31.9069 81.7171 32.8678 80.9156 33.2563 80.5949C33.6449 80.2743 34.362 79.6901 34.846 79.3018C35.3335 78.9099 36.0788 78.3256 36.5063 78.0014C36.9337 77.6772 37.5237 77.2533 37.8133 77.0574C38.1065 76.8614 38.4704 76.6405 38.6258 76.5622C38.7812 76.4874 38.972 76.4161 39.0497 76.4054C39.1592 76.3876 39.2051 76.3983 39.244 76.4482C39.2793 76.4874 39.297 76.58 39.297 76.6904C39.2935 76.808 39.2511 76.9754 39.1769 77.1571C39.1133 77.3139 38.9685 77.6131 38.8484 77.8162C38.7318 78.0228 38.4598 78.4574 38.2443 78.7781C38.0288 79.1022 37.5872 79.7186 37.2658 80.1496C36.9443 80.5807 36.3968 81.3039 36.0435 81.7528C35.6938 82.2052 35.065 82.9996 34.6482 83.5162C34.2349 84.0363 33.3199 85.1763 32.6205 86.0456C31.9175 86.9184 31.0379 88.0264 30.6635 88.5037C30.289 88.9847 29.6991 89.7542 29.3564 90.2138C29.0138 90.6769 28.5581 91.3181 28.3426 91.6388C28.1271 91.963 27.8586 92.3869 27.7491 92.5828C27.6361 92.7788 27.4948 93.0602 27.4383 93.2063C27.3782 93.3559 27.3217 93.5554 27.3146 93.6516C27.3005 93.8012 27.3111 93.844 27.3747 93.901C27.4453 93.9687 27.463 93.9687 27.5972 93.9259C27.682 93.901 27.8516 93.819 27.9752 93.7513C28.1024 93.6801 28.3567 93.5162 28.5404 93.3915C28.7276 93.2633 29.0668 93.0139 29.2999 92.8393C29.5331 92.6612 29.9958 92.2978 30.3243 92.0342C30.6564 91.767 31.4512 91.1079 32.0906 90.57C32.7335 90.0321 34.1077 88.8636 35.1463 87.9729C36.1884 87.0823 37.4989 85.9672 38.0606 85.4934C38.6258 85.0196 39.4524 84.3391 39.8975 83.9758C40.3462 83.616 41.0067 83.0958 41.3635 82.8251C41.7238 82.5508 42.2396 82.1803 42.5116 81.9986C42.7836 81.8169 43.151 81.596 43.3241 81.5069C43.5042 81.4179 43.7233 81.3324 43.8257 81.3181C43.9847 81.2932 44.02 81.3003 44.0836 81.3609C44.126 81.4036 44.1578 81.4784 44.1578 81.539C44.1578 81.5996 44.1295 81.735 44.1012 81.8418C44.0695 81.9523 43.9599 82.2088 43.8575 82.4118C43.7551 82.6185 43.5678 82.964 43.4407 83.1778C43.3135 83.3951 42.9673 83.9223 42.6706 84.3534C42.3774 84.7845 41.9888 85.3295 41.8122 85.5647C41.6355 85.7998 40.9043 86.7545 40.1837 87.6844C39.4666 88.6177 38.5446 89.8254 38.1383 90.3741C37.7321 90.9227 37.2446 91.6067 37.0538 91.8881C36.8666 92.1731 36.5875 92.6149 36.4356 92.8678C36.2837 93.1243 36.0471 93.5554 35.9058 93.8297C35.768 94.104 35.5878 94.4995 35.5101 94.7025C35.4289 94.9092 35.3229 95.2227 35.2699 95.3972C35.2204 95.5753 35.1392 95.9031 35.0933 96.1275C35.0438 96.3555 34.9873 96.7617 34.9661 97.036C34.9343 97.4172 34.9343 97.6594 34.9661 98.062C34.9873 98.3506 35.0191 98.6213 35.0367 98.6676C35.0615 98.7389 35.3405 98.4182 37.4707 95.896C39.3994 93.6088 40.2084 92.6826 41.5649 91.2077L43.2534 89.3694C47.4536 85.4649 47.8775 85.0908 48.7995 84.357C49.3824 83.8938 49.9229 83.4521 50.0006 83.3773C50.0783 83.3025 50.1878 83.1635 50.2373 83.0673C50.2903 82.9711 50.3468 82.8073 50.3644 82.6968C50.3821 82.59 50.3856 82.4047 50.368 82.2871C50.3538 82.1625 50.2938 81.9843 50.2302 81.8596C50.1666 81.7421 49.937 81.311 49.7215 80.8978C49.5025 80.4881 49.1175 79.7328 48.8631 79.2234C48.6088 78.7139 48.2802 78.0192 48.1283 77.6737C47.98 77.3317 47.7998 76.8828 47.7292 76.6762C47.6267 76.3698 47.602 76.2522 47.602 76.0171C47.602 75.7891 47.6197 75.6929 47.6903 75.5397C47.7433 75.4186 47.8422 75.2868 47.9517 75.1906C48.0506 75.1051 48.2167 75.0018 48.3226 74.959C48.4427 74.9163 48.909 74.8308 49.506 74.7488C50.322 74.6348 50.5163 74.5957 50.6152 74.528C50.6824 74.4852 50.7636 74.4033 50.7989 74.3427C50.8449 74.2715 50.8943 74.0257 50.9544 73.5768C51.0038 73.217 51.0745 72.8571 51.1063 72.7788C51.1416 72.704 51.2122 72.6042 51.2652 72.5579C51.3182 72.5116 51.4207 72.4581 51.4949 72.4403C51.569 72.4225 51.8905 72.3726 52.2084 72.3299C52.5723 72.28 52.8443 72.2266 52.9255 72.1838C53.0068 72.1411 53.0916 72.0591 53.141 71.9665C53.2117 71.8418 53.247 71.6566 53.3388 70.9761C53.4024 70.5166 53.4625 70.1283 53.4766 70.1176C53.4872 70.1069 53.844 69.9359 54.2679 69.7435C54.6918 69.5511 55.038 69.3837 55.038 69.373C55.038 69.3659 54.2502 68.5643 53.2894 67.5917L51.5443 65.8283L51.4772 65.9886ZM67.3842 61.963H100.714V79.3409C100.714 91.4749 100.703 96.808 100.675 97.0182C100.654 97.1856 100.608 97.5561 100.569 97.8376C100.53 98.1226 100.445 98.6284 100.378 98.9597C100.311 99.2946 100.191 99.8005 100.113 100.082C100.039 100.367 99.8942 100.841 99.7953 101.133C99.6964 101.429 99.5162 101.902 99.3961 102.184C99.2795 102.469 99.064 102.936 98.9192 103.217C98.7744 103.502 98.5447 103.919 98.4105 104.143C98.2727 104.371 98.0467 104.724 97.9018 104.927C97.7605 105.134 97.5097 105.472 97.3472 105.675C97.1812 105.882 96.8845 106.227 96.6866 106.441C96.4853 106.658 96.1532 106.993 95.9483 107.186C95.7434 107.378 95.3655 107.706 95.1146 107.909C94.8603 108.115 94.4081 108.447 94.1079 108.65C93.8076 108.849 93.3837 109.116 93.1718 109.241C92.9563 109.362 92.49 109.612 92.1297 109.793C91.7693 109.975 91.1335 110.271 90.7166 110.452C90.2998 110.631 89.7099 110.876 89.4096 110.99C89.1093 111.108 88.6395 111.272 88.3675 111.357C88.0955 111.443 87.5479 111.592 87.1488 111.692C86.7496 111.788 86.1526 111.927 85.8241 111.995C85.492 112.066 84.57 112.262 83.7752 112.43C82.9768 112.597 81.7157 112.871 80.9668 113.035C80.2179 113.203 79.0275 113.477 78.3174 113.641C77.6074 113.808 76.3922 114.104 75.615 114.296C74.8379 114.492 73.8664 114.742 73.4602 114.852C73.0504 114.963 72.4251 115.141 72.0648 115.248C71.7045 115.351 70.998 115.575 70.4928 115.746C69.9877 115.914 69.1752 116.199 68.6912 116.384C68.2038 116.566 67.4831 116.851 67.0839 117.015C66.6848 117.182 66.0101 117.474 65.5826 117.667C65.1552 117.859 64.272 118.286 63.6221 118.614C62.9721 118.942 62.1207 119.387 61.7321 119.605C61.3436 119.822 61.0221 120 61.015 120C61.0115 119.996 61.0044 108.386 60.9903 68.3933L67.3842 61.963ZM71.7822 65.4186L68.5146 65.8568L64.65 69.7471C64.6147 70.0784 64.5758 70.399 64.537 70.6733C64.4981 70.9476 64.3816 71.7278 64.2756 72.4011C64.1696 73.078 64.0354 73.9829 63.9753 74.414C63.9188 74.845 63.834 75.5112 63.7952 75.8924C63.7457 76.352 63.7139 76.9505 63.7033 77.6559C63.6892 78.3541 63.6962 78.8921 63.7245 79.2056C63.7492 79.4727 63.7952 79.8575 63.834 80.0606C63.8693 80.2672 63.9294 80.5629 63.9682 80.7196C64.0106 80.8764 64.0919 81.1507 64.1555 81.3253C64.2155 81.5034 64.3356 81.792 64.4239 81.9665C64.5123 82.1446 64.6818 82.4332 64.8019 82.6078C64.9185 82.7859 65.1516 83.0673 65.3177 83.2312C65.4837 83.3987 65.7592 83.6338 65.9359 83.7549C66.109 83.8725 66.3951 84.0435 66.5717 84.1325C66.7448 84.2216 67.031 84.3427 67.2076 84.4068C67.3807 84.4674 67.6774 84.5565 67.8611 84.6028C68.0448 84.6491 68.4263 84.7239 68.7089 84.7702C69.1505 84.8379 69.366 84.8486 70.2632 84.8486C71.0333 84.8522 71.4608 84.8343 71.9059 84.788C72.2344 84.7524 72.7537 84.6847 73.0539 84.6348C73.3542 84.5885 73.6156 84.5493 73.6368 84.5493C73.658 84.5493 73.6651 84.699 73.658 84.9519C73.6474 85.2369 73.6615 85.4293 73.7039 85.6181C73.7357 85.7677 73.8064 85.9815 73.8629 86.099C73.9159 86.2166 74.0324 86.409 74.1172 86.523C74.202 86.637 74.3751 86.8115 74.5023 86.9077C74.6294 87.0039 74.8273 87.1322 74.9438 87.1856C75.0604 87.2426 75.2653 87.3139 75.4031 87.3459C75.5868 87.3922 75.7634 87.4029 76.0884 87.3958L76.5264 87.3815C77.4979 88.404 77.95 88.8921 78.1585 89.1272C78.3704 89.3623 78.7413 89.7969 78.9851 90.0891C79.2253 90.3848 79.5785 90.8336 79.7693 91.0866C79.9565 91.3431 80.2321 91.7421 80.384 91.9772C80.5323 92.2123 80.7407 92.5828 80.8432 92.7966C80.9492 93.0139 81.0693 93.2953 81.1117 93.42C81.1576 93.5554 81.1964 93.7798 81.2035 93.9544C81.2141 94.1254 81.2035 94.3213 81.1823 94.3997C81.1611 94.4781 81.0657 94.6384 80.9739 94.756C80.8679 94.8913 80.7443 94.9982 80.6312 95.0588C80.4899 95.13 80.4052 95.1479 80.2073 95.1479C80.0519 95.1443 79.8611 95.1158 79.6951 95.0623C79.5503 95.0196 79.2959 94.9127 79.1299 94.8272C78.9639 94.7453 78.6848 94.5814 78.5117 94.4638C78.3351 94.3463 78.0489 94.1397 77.8759 94.0007C77.6992 93.8653 77.3742 93.5946 77.1517 93.3986C76.9291 93.2063 76.4099 92.7111 76.0001 92.2978C75.5903 91.8881 75.1311 91.4179 74.9756 91.2504C74.8237 91.0866 74.6436 90.9298 74.58 90.9049C74.5164 90.8764 74.368 90.855 74.2444 90.855C74.0748 90.855 73.9759 90.8799 73.8028 90.9619C73.6827 91.0224 73.5061 91.1471 73.4143 91.2398C73.3189 91.3324 73.1988 91.5034 73.1387 91.6209C73.0539 91.8026 73.0363 91.8774 73.0363 92.1019C73.0363 92.2978 73.0539 92.4047 73.1034 92.4938C73.1423 92.565 73.545 92.9961 74.0042 93.4557C74.4634 93.9188 75.071 94.503 75.3501 94.7595C75.6327 95.0125 76.0036 95.3438 76.1802 95.4898C76.3533 95.6395 76.6324 95.8639 76.7984 95.9922C76.9645 96.1204 77.2647 96.3377 77.4696 96.4767C77.6745 96.612 77.9818 96.808 78.1585 96.9042C78.3316 97.0039 78.6353 97.15 78.8296 97.2284C79.0239 97.3067 79.3242 97.4065 79.5008 97.4528C79.7481 97.5134 79.9177 97.5312 80.2603 97.5276C80.5853 97.5276 80.7725 97.5062 80.9668 97.4564C81.1117 97.4172 81.3519 97.3281 81.4967 97.2569C81.6415 97.1892 81.8959 97.036 82.0619 96.9184C82.2279 96.7973 82.4893 96.5764 82.6413 96.4232C82.7967 96.27 83.0122 96.01 83.1217 95.8425C83.2276 95.6787 83.3619 95.4222 83.4149 95.2725C83.4679 95.1265 83.535 94.8949 83.5632 94.756C83.5915 94.6206 83.6162 94.3142 83.6162 94.0791C83.6162 93.844 83.5915 93.5091 83.5632 93.331C83.5314 93.1564 83.4679 92.8678 83.4184 92.6897C83.3689 92.5151 83.2559 92.1945 83.1676 91.9772C83.0793 91.7635 82.9239 91.4179 82.8179 91.2113C82.7154 91.0082 82.5211 90.6591 82.3904 90.4382C82.2562 90.2173 82.016 89.8397 81.85 89.601C81.6839 89.3623 81.4013 88.974 81.2176 88.7389C81.0339 88.5002 80.7407 88.1404 80.5676 87.9337C80.3946 87.7307 80.0024 87.2925 79.6986 86.9612C79.3948 86.6299 78.9533 86.1774 78.7131 85.953L78.2821 85.5469C78.3351 85.3402 78.3527 85.1372 78.3527 84.959C78.3527 84.7845 78.328 84.5422 78.2998 84.4247C78.2715 84.3071 78.1867 84.0933 78.1125 83.9437C78.0207 83.7549 77.9076 83.6017 77.7169 83.4093C77.5721 83.2633 77.3636 83.0923 77.2577 83.0281C77.1517 82.964 76.9433 82.8678 76.7984 82.818C76.5582 82.7289 76.484 82.7218 76.0283 82.7182C75.7528 82.7182 75.5267 82.7075 75.5267 82.6968C75.5267 82.6897 75.9965 82.2088 76.5688 81.6281L77.6109 80.5771L87.8376 90.8906C88.2933 92.3691 88.4523 92.8607 88.4876 92.9391C88.53 93.0388 88.5865 93.103 88.6784 93.1457C88.749 93.1778 88.8409 93.2063 88.8797 93.2063C88.9186 93.2063 88.9928 93.192 89.0457 93.1706C89.0987 93.1493 90.2079 92.0627 91.5044 90.7553C92.8008 89.4478 93.8889 88.3363 93.9171 88.2829C93.9418 88.2294 93.9666 88.1332 93.9666 88.0691C93.9666 88.005 93.9383 87.9052 93.903 87.8447C93.8677 87.7877 93.7829 87.7129 93.7158 87.6808C93.6486 87.6487 93.1611 87.4884 92.6348 87.3245L91.6704 87.0253L81.4437 76.7154C82.7331 75.4008 83.1641 74.9341 83.2347 74.8237C83.3054 74.7168 83.4184 74.5102 83.4891 74.3605C83.5597 74.2145 83.6445 73.9651 83.6833 73.8083C83.7222 73.6516 83.7717 73.3488 83.7893 73.1315C83.8105 72.9177 83.8282 72.5401 83.8282 72.2943C83.8282 72.052 83.8035 71.6423 83.7752 71.3858C83.7434 71.1329 83.6763 70.7303 83.6198 70.4952C83.5632 70.2601 83.4573 69.9074 83.3866 69.7114C83.316 69.5155 83.1605 69.1735 83.044 68.9455C82.9274 68.7211 82.7437 68.4076 82.6342 68.2508C82.5282 68.0941 82.3339 67.8376 82.2032 67.6808C82.0725 67.524 81.8535 67.2925 81.7228 67.1642C81.5886 67.036 81.3271 66.8151 81.1435 66.6726C80.9598 66.5265 80.6736 66.327 80.5076 66.2237C80.3416 66.1204 80.0413 65.9494 79.8364 65.8461C79.6315 65.7428 79.3065 65.5967 79.1122 65.5219C78.9179 65.4471 78.6248 65.3438 78.4587 65.2939C78.2927 65.2476 78.0242 65.1763 77.8582 65.1372C77.6922 65.098 77.3919 65.041 77.187 65.0089C76.9786 64.9768 76.5123 64.9483 76.1272 64.9412C75.7493 64.9341 75.3501 64.9377 75.2441 64.9519C75.1381 64.9662 73.5803 65.1763 71.7822 65.4186ZM47.8139 38.8992C48.04 38.9063 48.3191 38.9455 48.4851 38.9847C48.6406 39.0274 48.8702 39.1094 48.9973 39.1664C49.1245 39.2269 49.3223 39.3445 49.4389 39.43C49.5555 39.5155 49.725 39.6616 49.8134 39.7577C49.9052 39.8539 50.0359 40.0107 50.1101 40.1069C50.1807 40.2066 50.3008 40.4061 50.375 40.5522C50.4457 40.7018 51.5514 43.445 55.144 52.4866L53.4377 54.2358C52.5016 55.1942 51.7174 55.9743 51.6997 55.9672C51.6785 55.9601 48.9691 54.9163 45.6768 53.6445C42.3844 52.3762 39.6079 51.3039 39.5125 51.2611C39.4136 51.2184 39.2228 51.1115 39.0886 51.0224C38.9508 50.9334 38.7459 50.7731 38.6329 50.6698C38.5198 50.5629 38.3467 50.3563 38.2549 50.2066C38.156 50.0534 38.0323 49.7969 37.9688 49.601C37.8592 49.2768 37.8557 49.2412 37.8522 48.6747C37.8522 48.2294 37.8663 48.0157 37.9158 47.7841C37.9546 47.6202 38.0359 47.321 38.0995 47.125C38.163 46.9291 38.2867 46.6014 38.3785 46.3947C38.4668 46.1917 38.6364 45.8461 38.753 45.6288C38.8731 45.415 39.1168 45.0125 39.3005 44.7382C39.4807 44.4638 39.7845 44.047 39.9717 43.8119C40.1554 43.5768 40.4945 43.1778 40.7241 42.9248C40.9502 42.6719 41.36 42.2551 41.632 42.0021C41.904 41.7492 42.3314 41.3716 42.5858 41.1685C42.8366 40.9654 43.2923 40.6306 43.5926 40.4275C43.8928 40.228 44.3061 39.9715 44.511 39.8611C44.7159 39.7506 45.0338 39.5903 45.2175 39.5048C45.4012 39.4193 45.7121 39.2946 45.9064 39.2269C46.1007 39.1592 46.4009 39.0666 46.5776 39.0274C46.7506 38.9847 47.0156 38.9348 47.1604 38.917C47.3053 38.8992 47.5985 38.8885 47.8139 38.8992ZM77.1482 66.7866C77.2753 66.8009 77.5155 66.8436 77.6816 66.8792C77.8476 66.9149 78.109 66.9861 78.2644 67.0395C78.4199 67.093 78.7131 67.2141 78.9179 67.3103C79.1228 67.41 79.3666 67.5419 79.4655 67.6024C79.5609 67.663 79.7693 67.8126 79.9247 67.9337C80.0802 68.0549 80.3592 68.3114 80.5429 68.5073C80.7266 68.6997 80.981 69.0096 81.1046 69.1984C81.2318 69.3837 81.419 69.7043 81.5179 69.9074C81.6203 70.114 81.7687 70.4738 81.8464 70.7089C81.9241 70.9441 82.0195 71.2968 82.0619 71.4927C82.1008 71.6886 82.1432 72.0093 82.1573 72.2052C82.175 72.5187 82.1679 72.5828 82.1008 72.7396C82.0407 72.8821 81.8535 73.0923 81.1682 73.7834C80.5641 74.3926 80.2886 74.6455 80.2321 74.6455C80.1897 74.6455 80.1437 74.6277 80.1296 74.6028C80.1155 74.5778 80.1049 74.0363 80.1014 73.3987C80.0978 72.4973 80.0837 72.1625 80.0342 71.8846C80.0024 71.6886 79.9353 71.3609 79.8859 71.1543C79.8364 70.9512 79.741 70.6128 79.6739 70.4061C79.6033 70.2031 79.462 69.8575 79.3595 69.6402C79.2571 69.4264 79.0451 69.0559 78.8897 68.8208C78.7343 68.5857 78.4835 68.2579 78.328 68.0941C78.1761 67.9302 77.9182 67.6915 77.7522 67.5597C77.5862 67.4314 77.3248 67.2533 77.1693 67.1642C76.9927 67.0609 76.8832 66.9754 76.8761 66.9327C76.8691 66.8935 76.8761 66.84 76.8867 66.8115C76.9079 66.7759 76.9645 66.7688 77.1482 66.7866Z" fill="white"/>
</svg>
