<svg width="133" height="106" viewBox="0 0 133 106" fill="none" xmlns="http://www.w3.org/2000/svg">
<path d="M16.3378 26.978C17.6049 26.978 18.69 27.0117 19.5932 27.0791C20.4963 27.133 21.2984 27.2408 21.9993 27.4026C22.7003 27.5644 23.2597 27.7666 23.6776 28.0092C24.1089 28.2384 24.4594 28.5551 24.729 28.9595C25.0121 29.3639 25.2076 29.8155 25.3154 30.3143C25.4232 30.7995 25.4772 31.3994 25.4772 32.1138H20.4626C20.4626 31.8981 20.4222 31.7296 20.3413 31.6083C20.2739 31.487 20.1122 31.3724 19.8561 31.2646C19.5999 31.1433 19.1955 31.0624 18.6429 31.0219C18.0902 30.968 17.3623 30.9411 16.4591 30.9411C15.2594 30.9411 14.3832 30.968 13.8306 31.0219C13.2779 31.0759 12.9274 31.1433 12.7791 31.2241C12.6308 31.305 12.5567 31.4466 12.5567 31.6488C12.5702 31.824 12.7522 31.9453 13.1026 32.0127C13.4666 32.0666 14.545 32.1677 16.3378 32.316C16.3648 32.316 16.385 32.3228 16.3985 32.3362C19.9571 32.6193 22.215 32.8754 23.1721 33.1046C24.4257 33.4011 25.2345 33.9066 25.5985 34.6211C25.8411 35.1063 25.9624 35.8073 25.9624 36.7239C25.9624 37.371 25.9152 37.9034 25.8209 38.3213C25.74 38.7392 25.5648 39.1233 25.2952 39.4738C25.0391 39.8243 24.7021 40.1006 24.2842 40.3028C23.8663 40.4915 23.2867 40.6533 22.5453 40.7881C21.8039 40.9229 20.9547 41.0173 19.9976 41.0712C19.054 41.1116 17.8745 41.1318 16.4591 41.1318C15.4886 41.1318 14.6461 41.1184 13.9317 41.0914C13.2307 41.0644 12.5702 41.0173 11.9501 40.9499C11.3435 40.8825 10.838 40.7948 10.4336 40.687C10.0292 40.5792 9.66528 40.4309 9.34176 40.2422C9.01825 40.0534 8.76213 39.8512 8.57341 39.6356C8.39817 39.4064 8.2499 39.1166 8.12858 38.7661C8.00726 38.4156 7.92638 38.0449 7.88594 37.654C7.8455 37.2631 7.82528 36.7981 7.82528 36.2589H12.6982C12.6982 36.488 12.7319 36.6633 12.7993 36.7846C12.8802 36.9059 13.0622 37.007 13.3453 37.0879C13.6284 37.1688 14.0193 37.2227 14.518 37.2496C15.0303 37.2766 15.7514 37.2901 16.6815 37.2901C16.7894 37.2901 16.9511 37.2901 17.1668 37.2901C18.7035 37.2901 19.6336 37.2631 19.9571 37.2092C20.2941 37.1553 20.4626 36.98 20.4626 36.6835C20.4626 36.5082 20.3481 36.3937 20.1189 36.3397C19.8898 36.2858 19.2562 36.2252 18.2182 36.1578C17.4634 36.1039 16.8366 36.0567 16.3378 36.0162C15.5425 35.9488 14.9292 35.8949 14.4978 35.8545C14.0799 35.814 13.5542 35.7601 12.9207 35.6927C12.3006 35.6118 11.8288 35.5377 11.5053 35.4703C11.1818 35.3894 10.7976 35.2951 10.3528 35.1872C9.90792 35.0659 9.57092 34.9311 9.34176 34.7828C9.12609 34.6345 8.88345 34.4593 8.61385 34.2571C8.35773 34.0549 8.16902 33.8258 8.0477 33.5696C7.93986 33.3135 7.83876 33.0237 7.7444 32.7002C7.66352 32.3632 7.62308 31.9992 7.62308 31.6083C7.62308 31.1365 7.65678 30.7119 7.72418 30.3345C7.79158 29.957 7.88594 29.62 8.00726 29.3235C8.12858 29.0269 8.29708 28.7641 8.51275 28.5349C8.72843 28.3058 8.95759 28.1103 9.20023 27.9485C9.44286 27.7733 9.7529 27.6318 10.1303 27.5239C10.5213 27.4026 10.9054 27.3082 11.2829 27.2408C11.6738 27.1734 12.1523 27.1195 12.7185 27.0791C13.2846 27.0386 13.8373 27.0117 14.3765 26.9982C14.9292 26.9847 15.5829 26.978 16.3378 26.978ZM36.6367 26.8162C38.4161 26.8162 39.946 26.9712 41.2266 27.2813C42.5072 27.5778 43.5182 28.0159 44.2596 28.5956C45.001 29.1617 45.5402 29.8222 45.8772 30.5771C46.2142 31.332 46.3827 32.2082 46.3827 33.2057H41.5501C41.5367 33.1383 41.5097 33.0507 41.4693 32.9428C41.4423 32.835 41.3277 32.653 41.1255 32.3969C40.9233 32.1273 40.6605 31.8914 40.337 31.6892C40.0134 31.4735 39.5214 31.2848 38.8609 31.123C38.2139 30.9478 37.459 30.8602 36.5963 30.8602C35.8279 30.8602 35.1539 30.9208 34.5743 31.0422C34.0082 31.1635 33.5566 31.3185 33.2196 31.5072C32.8961 31.6959 32.6332 31.9386 32.431 32.2351C32.2423 32.5182 32.1142 32.8013 32.0468 33.0844C31.9794 33.354 31.9457 33.6573 31.9457 33.9943C31.9457 34.466 32.0199 34.8839 32.1682 35.2479C32.3164 35.6118 32.5591 35.9488 32.8961 36.2589C33.2331 36.5554 33.7116 36.7846 34.3317 36.9463C34.9517 37.1081 35.7066 37.189 36.5963 37.189C37.5129 37.189 38.3082 37.1216 38.9822 36.9868C39.6562 36.852 40.1482 36.6902 40.4583 36.5015C40.7683 36.3128 41.0109 36.1241 41.1862 35.9354C41.3749 35.7332 41.4827 35.5647 41.5097 35.4299L41.5501 35.2277H46.3827C46.3827 35.9151 46.295 36.5419 46.1198 37.1081C45.9446 37.6608 45.6345 38.2 45.1897 38.7257C44.7449 39.2514 44.1652 39.6895 43.4508 40.04C42.7498 40.3904 41.8332 40.6735 40.7009 40.8892C39.5686 41.0914 38.2543 41.1925 36.7581 41.1925C34.9248 41.1925 33.3881 41.0577 32.1479 40.7881C30.9078 40.505 29.9103 40.0669 29.1554 39.4738C28.414 38.8672 27.8816 38.1393 27.558 37.2901C27.2345 36.4408 27.0728 35.3962 27.0728 34.156C27.0728 32.8215 27.275 31.6825 27.6794 30.7389C28.0972 29.7818 28.7173 29.0202 29.5396 28.454C30.3619 27.8744 31.3526 27.4565 32.5119 27.2004C33.6712 26.9443 35.0461 26.8162 36.6367 26.8162ZM60.4161 26.9375H65.1274V41.1318H60.4161V36.1982H51.9643V41.1318H47.2531V26.9375H51.9643V31.851H60.4161V26.9375ZM66.8645 26.9375H82.5348V30.8804H71.5757V32.134H81.8474V35.9151H71.5757V37.189H82.5348V41.1318H66.8645V26.9375Z" fill="#141518"/>
<path d="M17.3892 66.4062H7.62308V52.2524H17.3286C18.2452 52.2524 19.0607 52.3063 19.7752 52.4142C20.4896 52.5085 21.2108 52.7107 21.9387 53.0208C22.6666 53.3173 23.2732 53.7217 23.7585 54.2339C24.2437 54.7327 24.6347 55.4134 24.9312 56.2761C25.2413 57.1388 25.3963 58.1566 25.3963 59.3293C25.3963 60.3808 25.2345 61.3243 24.911 62.1601C24.5875 62.9958 24.1629 63.6766 23.6372 64.2023C23.1114 64.7145 22.4914 65.1459 21.7769 65.4964C21.0625 65.8334 20.3413 66.0693 19.6134 66.2041C18.899 66.3389 18.1576 66.4062 17.3892 66.4062ZM17.0657 62.5443C17.8071 62.5443 18.4407 62.4027 18.9664 62.1197C19.4921 61.8231 19.8763 61.4389 20.1189 60.9671C20.3615 60.4953 20.4829 59.9561 20.4829 59.3495C20.4829 58.379 20.2065 57.6039 19.6539 57.0243C19.1147 56.4312 18.2519 56.1346 17.0657 56.1346H12.3343V62.5443H17.0657ZM37.1207 66.4062C35.0044 66.4062 33.2385 66.1973 31.8232 65.7794C30.4078 65.3616 29.4305 64.6404 28.8913 63.6159C28.5004 62.8476 28.2375 61.8972 28.1027 60.7649C27.9679 59.6191 27.9005 57.9005 27.9005 55.6089L27.9207 52.212H32.8948V58.561C32.8948 58.9654 32.915 59.3293 32.9555 59.6528C32.9959 59.9629 33.097 60.3066 33.2588 60.6841C33.434 61.0615 33.6699 61.3783 33.9665 61.6344C34.263 61.877 34.6809 62.086 35.2201 62.2612C35.7593 62.423 36.3928 62.5038 37.1207 62.5038C37.8621 62.5038 38.4957 62.423 39.0214 62.2612C39.5606 62.086 39.965 61.877 40.2346 61.6344C40.5177 61.3917 40.7401 61.0817 40.9018 60.7043C41.0636 60.3134 41.158 59.9629 41.1849 59.6528C41.2254 59.3428 41.2456 58.9788 41.2456 58.561V52.212H46.2196V55.6089C46.2331 57.9005 46.1725 59.6191 46.0377 60.7649C45.9029 61.8972 45.64 62.8476 45.2491 63.6159C44.966 64.1551 44.5616 64.6134 44.0359 64.9909C43.5237 65.3548 42.9036 65.6379 42.1757 65.8401C41.4478 66.0423 40.6794 66.1906 39.8706 66.2849C39.0618 66.3658 38.1452 66.4062 37.1207 66.4062ZM53.6593 61.695H63.9511V66.4062H48.9481V52.212H53.6593V61.695ZM66.84 52.212H82.5104V56.1548H71.5512V57.4084H81.8229V61.1895H71.5512V62.4634H82.5104V66.4062H66.84V52.212Z" fill="#141518"/>
<path fill-rule="evenodd" clip-rule="evenodd" d="M88.9673 76.6816H3.0332V103.978H88.9673V76.6816ZM15.9496 88.8214L21.3706 83.8109H16.8979L12.7792 87.7457V83.8109H9.48133V93.7469H12.7792V91.7512L13.8407 90.7746L16.8979 93.7469H21.3706L15.9496 88.8214ZM51.3418 83.8109H44.3639V93.7469H47.6618V91.7371H51.455C51.6249 91.7371 51.8089 91.7277 52.007 91.7088C52.2052 91.6805 52.4411 91.6333 52.7147 91.5672C52.9978 91.4918 53.2667 91.3974 53.5215 91.2842C53.7762 91.1615 54.0357 90.9964 54.2999 90.7888C54.5641 90.5718 54.7906 90.3264 54.9793 90.0528C55.168 89.7697 55.319 89.4206 55.4322 89.0054C55.5549 88.5902 55.6162 88.1326 55.6162 87.6325C55.6162 87.1229 55.5502 86.6653 55.4181 86.2596C55.2954 85.8444 55.135 85.5094 54.9369 85.2546C54.7481 84.9904 54.5122 84.764 54.2292 84.5752C53.9461 84.3865 53.6772 84.245 53.4224 84.1506C53.1771 84.0468 52.8987 83.9713 52.5873 83.9242C52.2854 83.8676 52.0495 83.8345 51.8796 83.8251C51.7098 83.8157 51.5305 83.8109 51.3418 83.8109ZM52.5449 87.7316C52.5449 88.4487 52.1108 88.8072 51.2427 88.8072H47.6618V86.7266H51.1861C51.2804 86.7266 51.3654 86.7313 51.4409 86.7408C51.5163 86.7502 51.6107 86.7644 51.7239 86.7832C51.8466 86.7927 51.9504 86.821 52.0353 86.8682C52.1202 86.9153 52.2052 86.9767 52.2901 87.0522C52.375 87.1182 52.4363 87.2079 52.4741 87.3211C52.5213 87.4343 52.5449 87.5711 52.5449 87.7316ZM78.7239 83.8109V93.7469H82.0218V83.8109H78.7239Z" fill="#141518"/>
<rect x="1.51648" y="15.5165" width="88.967" height="88.967" rx="7.68352" stroke="#141518" stroke-width="3.03297"/>
<rect x="75" width="58" height="26" rx="13" fill="#141518"/>
<path d="M92.838 9.44C93.454 9.44 94.0093 9.57067 94.504 9.832C95.008 10.0933 95.4047 10.4713 95.694 10.966C95.9833 11.4607 96.128 12.044 96.128 12.716C96.128 13.5467 95.9413 14.298 95.568 14.97C95.204 15.6327 94.7 16.1553 94.056 16.538C93.4213 16.9113 92.712 17.098 91.928 17.098C91.312 17.098 90.78 16.9907 90.332 16.776C89.884 16.552 89.5433 16.23 89.31 15.81L89.072 17H87.406L89.478 6.612H91.228L90.514 10.224C91.1487 9.70133 91.9233 9.44 92.838 9.44ZM91.788 15.6C92.2827 15.6 92.7213 15.4833 93.104 15.25C93.496 15.0073 93.804 14.676 94.028 14.256C94.252 13.8267 94.364 13.3413 94.364 12.8C94.364 12.212 94.1913 11.7547 93.846 11.428C93.5007 11.092 93.0153 10.924 92.39 10.924C91.8953 10.924 91.452 11.0453 91.06 11.288C90.6773 11.5213 90.374 11.8527 90.15 12.282C89.926 12.702 89.814 13.1827 89.814 13.724C89.814 14.312 89.9867 14.774 90.332 15.11C90.6773 15.4367 91.1627 15.6 91.788 15.6ZM104.83 12.716C104.83 13.08 104.792 13.4347 104.718 13.78H98.7817C98.8097 15.0027 99.5283 15.614 100.938 15.614C101.367 15.614 101.768 15.5487 102.142 15.418C102.515 15.278 102.832 15.0867 103.094 14.844L103.822 16.062C103.439 16.4073 102.977 16.6687 102.436 16.846C101.904 17.014 101.344 17.098 100.756 17.098C100.009 17.098 99.3557 16.9627 98.7957 16.692C98.245 16.4213 97.8203 16.0387 97.5217 15.544C97.223 15.04 97.0737 14.4613 97.0737 13.808C97.0737 12.9773 97.2557 12.2307 97.6197 11.568C97.993 10.896 98.5063 10.3733 99.1597 10C99.8223 9.62667 100.564 9.44 101.386 9.44C102.431 9.44 103.266 9.734 103.892 10.322C104.517 10.9007 104.83 11.6987 104.83 12.716ZM101.302 10.84C100.714 10.84 100.21 10.9987 99.7897 11.316C99.379 11.6333 99.0943 12.0673 98.9357 12.618H103.22C103.229 12.058 103.056 11.624 102.702 11.316C102.356 10.9987 101.89 10.84 101.302 10.84ZM108.136 14.494C108.117 14.6433 108.108 14.7507 108.108 14.816C108.108 15.376 108.402 15.656 108.99 15.656C109.354 15.656 109.68 15.558 109.97 15.362L110.278 16.65C109.802 16.9487 109.2 17.098 108.472 17.098C107.828 17.098 107.31 16.9207 106.918 16.566C106.526 16.2113 106.33 15.7213 106.33 15.096C106.33 14.8907 106.348 14.6947 106.386 14.508L107.1 10.98H105.882L106.162 9.58H107.38L107.716 7.872H109.466L109.116 9.58H111.132L110.852 10.98H108.836L108.136 14.494ZM120.151 9.524L118.667 17H117.001L117.155 16.23C116.502 16.8087 115.69 17.098 114.719 17.098C114.103 17.098 113.543 16.9673 113.039 16.706C112.544 16.4447 112.152 16.0667 111.863 15.572C111.574 15.068 111.429 14.48 111.429 13.808C111.429 12.9773 111.611 12.2307 111.975 11.568C112.348 10.896 112.852 10.3733 113.487 10C114.131 9.62667 114.85 9.44 115.643 9.44C116.838 9.44 117.687 9.83667 118.191 10.63L118.401 9.524H120.151ZM115.167 15.6C115.662 15.6 116.1 15.4833 116.483 15.25C116.875 15.0073 117.183 14.676 117.407 14.256C117.631 13.8267 117.743 13.3413 117.743 12.8C117.743 12.212 117.57 11.7547 117.225 11.428C116.88 11.092 116.394 10.924 115.769 10.924C115.274 10.924 114.831 11.0453 114.439 11.288C114.056 11.5213 113.753 11.8527 113.529 12.282C113.305 12.702 113.193 13.1827 113.193 13.724C113.193 14.312 113.366 14.774 113.711 15.11C114.056 15.4367 114.542 15.6 115.167 15.6Z" fill="white"/>
</svg>
