<svg xmlns="http://www.w3.org/2000/svg" width="92" height="92" fill="none" viewBox="0 0 92 92"><path fill="#141518" d="M16.3378 12.978C17.6049 12.978 18.69 13.0117 19.5932 13.0791C20.4963 13.133 21.2984 13.2408 21.9993 13.4026C22.7003 13.5644 23.2597 13.7666 23.6776 14.0092C24.1089 14.2384 24.4594 14.5551 24.729 14.9595C25.0121 15.3639 25.2076 15.8155 25.3154 16.3143C25.4232 16.7995 25.4772 17.3994 25.4772 18.1138H20.4626C20.4626 17.8981 20.4222 17.7296 20.3413 17.6083C20.2739 17.487 20.1122 17.3724 19.8561 17.2646C19.5999 17.1433 19.1955 17.0624 18.6429 17.0219C18.0902 16.968 17.3623 16.9411 16.4591 16.9411C15.2594 16.9411 14.3832 16.968 13.8306 17.0219C13.2779 17.0759 12.9274 17.1433 12.7791 17.2241C12.6308 17.305 12.5567 17.4466 12.5567 17.6488C12.5702 17.824 12.7522 17.9453 13.1026 18.0127C13.4666 18.0666 14.545 18.1677 16.3378 18.316C16.3648 18.316 16.385 18.3228 16.3985 18.3362C19.9571 18.6193 22.215 18.8754 23.1721 19.1046C24.4257 19.4011 25.2345 19.9066 25.5985 20.6211C25.8411 21.1063 25.9624 21.8073 25.9624 22.7239C25.9624 23.371 25.9152 23.9034 25.8209 24.3213C25.74 24.7392 25.5648 25.1233 25.2952 25.4738C25.0391 25.8243 24.7021 26.1006 24.2842 26.3028C23.8663 26.4915 23.2867 26.6533 22.5453 26.7881C21.8039 26.9229 20.9547 27.0173 19.9976 27.0712C19.054 27.1116 17.8745 27.1318 16.4591 27.1318C15.4886 27.1318 14.6461 27.1184 13.9317 27.0914C13.2307 27.0644 12.5702 27.0173 11.9501 26.9499C11.3435 26.8825 10.838 26.7948 10.4336 26.687C10.0292 26.5792 9.66528 26.4309 9.34176 26.2422C9.01825 26.0534 8.76213 25.8512 8.57341 25.6356C8.39817 25.4064 8.2499 25.1166 8.12858 24.7661C8.00726 24.4156 7.92638 24.0449 7.88594 23.654C7.8455 23.2631 7.82528 22.7981 7.82528 22.2589H12.6982C12.6982 22.488 12.7319 22.6633 12.7993 22.7846C12.8802 22.9059 13.0622 23.007 13.3453 23.0879C13.6284 23.1688 14.0193 23.2227 14.518 23.2496C15.0303 23.2766 15.7514 23.2901 16.6815 23.2901C16.7894 23.2901 16.9511 23.2901 17.1668 23.2901C18.7035 23.2901 19.6336 23.2631 19.9571 23.2092C20.2941 23.1553 20.4626 22.98 20.4626 22.6835C20.4626 22.5082 20.3481 22.3937 20.1189 22.3397C19.8898 22.2858 19.2562 22.2252 18.2182 22.1578C17.4634 22.1039 16.8366 22.0567 16.3378 22.0162C15.5425 21.9488 14.9292 21.8949 14.4978 21.8545C14.0799 21.814 13.5542 21.7601 12.9207 21.6927C12.3006 21.6118 11.8288 21.5377 11.5053 21.4703C11.1818 21.3894 10.7976 21.2951 10.3528 21.1872C9.90792 21.0659 9.57092 20.9311 9.34176 20.7828C9.12609 20.6345 8.88345 20.4593 8.61385 20.2571C8.35773 20.0549 8.16902 19.8258 8.0477 19.5696C7.93986 19.3135 7.83876 19.0237 7.7444 18.7002C7.66352 18.3632 7.62308 17.9992 7.62308 17.6083C7.62308 17.1365 7.65678 16.7119 7.72418 16.3345C7.79158 15.957 7.88594 15.62 8.00726 15.3235C8.12858 15.0269 8.29708 14.7641 8.51275 14.5349C8.72843 14.3058 8.95759 14.1103 9.20023 13.9485C9.44286 13.7733 9.7529 13.6318 10.1303 13.5239C10.5213 13.4026 10.9054 13.3082 11.2829 13.2408C11.6738 13.1734 12.1523 13.1195 12.7185 13.0791C13.2846 13.0386 13.8373 13.0117 14.3765 12.9982C14.9292 12.9847 15.5829 12.978 16.3378 12.978ZM36.6367 12.8162C38.4161 12.8162 39.946 12.9712 41.2266 13.2813C42.5072 13.5778 43.5182 14.0159 44.2596 14.5956C45.001 15.1617 45.5402 15.8222 45.8772 16.5771C46.2142 17.332 46.3827 18.2082 46.3827 19.2057H41.5501C41.5367 19.1383 41.5097 19.0507 41.4693 18.9428C41.4423 18.835 41.3277 18.653 41.1255 18.3969C40.9233 18.1273 40.6605 17.8914 40.337 17.6892C40.0134 17.4735 39.5214 17.2848 38.8609 17.123C38.2139 16.9478 37.459 16.8602 36.5963 16.8602C35.8279 16.8602 35.1539 16.9208 34.5743 17.0422C34.0082 17.1635 33.5566 17.3185 33.2196 17.5072C32.8961 17.6959 32.6332 17.9386 32.431 18.2351C32.2423 18.5182 32.1142 18.8013 32.0468 19.0844C31.9794 19.354 31.9457 19.6573 31.9457 19.9943C31.9457 20.466 32.0199 20.8839 32.1682 21.2479C32.3164 21.6118 32.5591 21.9488 32.8961 22.2589C33.2331 22.5554 33.7116 22.7846 34.3317 22.9463C34.9517 23.1081 35.7066 23.189 36.5963 23.189C37.5129 23.189 38.3082 23.1216 38.9822 22.9868C39.6562 22.852 40.1482 22.6902 40.4583 22.5015C40.7683 22.3128 41.0109 22.1241 41.1862 21.9354C41.3749 21.7332 41.4827 21.5647 41.5097 21.4299L41.5501 21.2277H46.3827C46.3827 21.9151 46.295 22.5419 46.1198 23.1081C45.9446 23.6608 45.6345 24.2 45.1897 24.7257C44.7449 25.2514 44.1652 25.6895 43.4508 26.04C42.7498 26.3904 41.8332 26.6735 40.7009 26.8892C39.5686 27.0914 38.2543 27.1925 36.7581 27.1925C34.9248 27.1925 33.3881 27.0577 32.1479 26.7881C30.9078 26.505 29.9103 26.0669 29.1554 25.4738C28.414 24.8672 27.8816 24.1393 27.558 23.2901C27.2345 22.4408 27.0728 21.3962 27.0728 20.156C27.0728 18.8215 27.275 17.6825 27.6794 16.7389C28.0972 15.7818 28.7173 15.0202 29.5396 14.454C30.3619 13.8744 31.3526 13.4565 32.5119 13.2004C33.6712 12.9443 35.0461 12.8162 36.6367 12.8162ZM60.4161 12.9375H65.1274V27.1318H60.4161V22.1982H51.9643V27.1318H47.2531V12.9375H51.9643V17.851H60.4161V12.9375ZM66.8645 12.9375H82.5348V16.8804H71.5757V18.134H81.8474V21.9151H71.5757V23.189H82.5348V27.1318H66.8645V12.9375Z"/><path fill="#141518" d="M17.3892 52.4062H7.62308V38.2524H17.3286C18.2452 38.2524 19.0607 38.3063 19.7752 38.4142C20.4896 38.5085 21.2108 38.7107 21.9387 39.0208C22.6666 39.3173 23.2732 39.7217 23.7585 40.2339C24.2437 40.7327 24.6347 41.4134 24.9312 42.2761C25.2413 43.1388 25.3963 44.1566 25.3963 45.3293C25.3963 46.3808 25.2345 47.3243 24.911 48.1601C24.5875 48.9958 24.1629 49.6766 23.6372 50.2023C23.1114 50.7145 22.4914 51.1459 21.7769 51.4964C21.0625 51.8334 20.3413 52.0693 19.6134 52.2041C18.899 52.3389 18.1576 52.4062 17.3892 52.4062ZM17.0657 48.5443C17.8071 48.5443 18.4407 48.4027 18.9664 48.1197C19.4921 47.8231 19.8763 47.4389 20.1189 46.9671C20.3615 46.4953 20.4829 45.9561 20.4829 45.3495C20.4829 44.379 20.2065 43.6039 19.6539 43.0243C19.1147 42.4312 18.2519 42.1346 17.0657 42.1346H12.3343V48.5443H17.0657ZM37.1207 52.4062C35.0044 52.4062 33.2385 52.1973 31.8232 51.7794C30.4078 51.3616 29.4305 50.6404 28.8913 49.6159C28.5004 48.8476 28.2375 47.8972 28.1027 46.7649C27.9679 45.6191 27.9005 43.9005 27.9005 41.6089L27.9207 38.212H32.8948V44.561C32.8948 44.9654 32.915 45.3293 32.9555 45.6528C32.9959 45.9629 33.097 46.3066 33.2588 46.6841C33.434 47.0615 33.6699 47.3783 33.9665 47.6344C34.263 47.877 34.6809 48.086 35.2201 48.2612C35.7593 48.423 36.3928 48.5038 37.1207 48.5038C37.8621 48.5038 38.4957 48.423 39.0214 48.2612C39.5606 48.086 39.965 47.877 40.2346 47.6344C40.5177 47.3917 40.7401 47.0817 40.9018 46.7043C41.0636 46.3134 41.158 45.9629 41.1849 45.6528C41.2254 45.3428 41.2456 44.9788 41.2456 44.561V38.212H46.2196V41.6089C46.2331 43.9005 46.1725 45.6191 46.0377 46.7649C45.9029 47.8972 45.64 48.8476 45.2491 49.6159C44.966 50.1551 44.5616 50.6134 44.0359 50.9909C43.5237 51.3548 42.9036 51.6379 42.1757 51.8401C41.4478 52.0423 40.6794 52.1906 39.8706 52.2849C39.0618 52.3658 38.1452 52.4062 37.1207 52.4062ZM53.6593 47.695H63.9511V52.4062H48.9481V38.212H53.6593V47.695ZM66.84 38.212H82.5104V42.1548H71.5512V43.4084H81.8229V47.1895H71.5512V48.4634H82.5104V52.4062H66.84V38.212Z"/><path fill="#141518" fill-rule="evenodd" d="M88.9673 62.6816H3.0332V89.9783H88.9673V62.6816ZM15.9496 74.8214L21.3706 69.8109H16.8979L12.7792 73.7457V69.8109H9.48133V79.7469H12.7792V77.7512L13.8407 76.7746L16.8979 79.7469H21.3706L15.9496 74.8214ZM51.3418 69.8109H44.3639V79.7469H47.6618V77.7371H51.455C51.6249 77.7371 51.8089 77.7277 52.007 77.7088C52.2052 77.6805 52.4411 77.6333 52.7147 77.5672C52.9978 77.4918 53.2667 77.3974 53.5215 77.2842C53.7762 77.1615 54.0357 76.9964 54.2999 76.7888C54.5641 76.5718 54.7906 76.3264 54.9793 76.0528C55.168 75.7697 55.319 75.4206 55.4322 75.0054C55.5549 74.5902 55.6162 74.1326 55.6162 73.6325C55.6162 73.1229 55.5502 72.6653 55.4181 72.2596C55.2954 71.8444 55.135 71.5094 54.9369 71.2546C54.7481 70.9904 54.5122 70.764 54.2292 70.5752C53.9461 70.3865 53.6772 70.245 53.4224 70.1506C53.1771 70.0468 52.8987 69.9713 52.5873 69.9242C52.2854 69.8676 52.0495 69.8345 51.8796 69.8251C51.7098 69.8157 51.5305 69.8109 51.3418 69.8109ZM52.5449 73.7316C52.5449 74.4487 52.1108 74.8072 51.2427 74.8072H47.6618V72.7266H51.1861C51.2804 72.7266 51.3654 72.7313 51.4409 72.7408C51.5163 72.7502 51.6107 72.7644 51.7239 72.7832C51.8466 72.7927 51.9504 72.821 52.0353 72.8682C52.1202 72.9153 52.2052 72.9767 52.2901 73.0522C52.375 73.1182 52.4363 73.2079 52.4741 73.3211C52.5213 73.4343 52.5449 73.5711 52.5449 73.7316ZM78.7239 69.8109V79.7469H82.0218V69.8109H78.7239Z" clip-rule="evenodd"/><rect width="88.967" height="88.967" x="1.516" y="1.516" stroke="#141518" stroke-width="3.033" rx="7.684"/></svg>