<svg width="185" height="64" viewBox="0 0 185 64" fill="none" xmlns="http://www.w3.org/2000/svg">
<path fill-rule="evenodd" clip-rule="evenodd" d="M31.4333 0L31.4427 28.5154L28.0421 31.9449H10.2852V5.13573H18.5918C26.4783 5.13573 26.9003 5.13383 26.9324 5.10343C26.9512 5.08443 27.9705 3.92922 29.1988 2.53462L31.4333 0ZM26.2296 13.0303C26.2108 13.5452 26.1957 14.1969 26.1825 14.8106L26.158 15.924C25.7341 16.0494 25.4892 16.1273 25.3385 16.1786C25.1162 16.2546 25.0615 16.2679 25.0465 16.247C25.037 16.2318 24.6395 15.7359 24.1666 15.1431L23.3037 14.0658C22.9175 14.252 22.5275 14.4477 22.1903 14.6187L21.5761 14.9303C22.1978 16.8892 22.3825 17.4744 22.39 17.4953C22.3975 17.5276 22.3598 17.558 22.1413 17.6948C21.9981 17.7822 21.7664 17.9323 21.627 18.0273C21.4875 18.1223 21.3632 18.2059 21.35 18.2135C21.3349 18.2211 20.992 17.9361 20.408 17.4288L19.4886 16.6289C19.4151 16.6992 19.0647 17.0146 18.6596 17.3737C18.2564 17.7328 17.9267 18.0349 17.9267 18.0463C17.9267 18.0558 18.2395 18.4719 18.6219 18.9678C19.0025 19.4637 19.3247 19.8817 19.336 19.895C19.3529 19.914 19.3115 19.9653 19.1589 20.123C19.0496 20.2351 18.8895 20.408 18.799 20.5068C18.7105 20.6056 18.5635 20.7766 18.4712 20.8868C18.3808 20.997 18.296 21.0882 18.2847 21.092C18.2734 21.0939 17.7685 20.9096 17.1618 20.6797C16.5552 20.4498 16.0597 20.2636 16.0578 20.2655C16.0578 20.2674 15.8317 20.6094 15.5548 21.0255C15.2778 21.4397 15.0536 21.7874 15.0574 21.795C15.0593 21.8045 15.404 22.1351 15.8242 22.5303C16.2443 22.9255 16.6249 23.2846 16.672 23.3283L16.7568 23.41C16.6946 23.5088 16.5834 23.7254 16.4704 23.9554C16.3574 24.1853 16.2142 24.4855 16.152 24.6223C16.0729 24.8028 16.0333 24.8712 16.0126 24.8655C15.9975 24.8617 15.4888 24.7762 14.8822 24.6774C14.2755 24.5786 13.78 24.4988 13.7781 24.5026C13.7762 24.5045 13.6349 24.951 13.4635 25.4944C13.2921 26.0378 13.1564 26.4881 13.1639 26.4957C13.1715 26.5014 13.6274 26.7522 14.1757 27.0543C14.7258 27.3545 15.178 27.6015 15.1798 27.6015C15.1836 27.6034 15.1554 27.7706 15.1196 27.9739C15.0819 28.1772 15.0348 28.4603 15.014 28.6009C14.9933 28.7415 14.9707 28.8631 14.9632 28.8688C14.9556 28.8745 14.5167 28.9505 13.9873 29.036C13.4597 29.1215 12.9737 29.1994 12.9096 29.2108L12.7909 29.2279V31.0519H16.4176C16.4403 30.3964 16.4553 30.062 16.4666 29.8834C16.476 29.7067 16.5024 29.3856 16.5231 29.1709C16.5439 28.9562 16.5834 28.6313 16.6079 28.4489C16.6343 28.2665 16.6833 27.9587 16.7191 27.7649C16.7549 27.5711 16.8189 27.2595 16.8623 27.0714C16.9056 26.8833 16.9829 26.5793 17.0337 26.3969C17.0846 26.2145 17.1656 25.9447 17.2127 25.7984C17.2598 25.6521 17.3446 25.4127 17.3973 25.2664C17.452 25.1201 17.5405 24.894 17.5952 24.7629C17.6498 24.6318 17.7534 24.3981 17.8269 24.2404C17.9004 24.0846 18.0266 23.8281 18.1095 23.6703C18.1924 23.5145 18.328 23.2694 18.4109 23.1288C18.4957 22.9882 18.6446 22.7488 18.7444 22.5968C18.8461 22.4448 19.0157 22.2016 19.125 22.0553C19.2324 21.909 19.4057 21.6867 19.5093 21.5613C19.6129 21.4359 19.7957 21.2269 19.9163 21.0958C20.035 20.9647 20.2422 20.7519 20.376 20.6208C20.5097 20.4897 20.7207 20.294 20.8451 20.1838C20.9694 20.0736 21.1691 19.9064 21.2878 19.8114C21.4084 19.7145 21.6345 19.5435 21.7909 19.4314C21.9491 19.3174 22.1865 19.154 22.3184 19.0704C22.4522 18.9849 22.6745 18.85 22.8139 18.7683C22.9533 18.6866 23.2171 18.5441 23.3979 18.4529C23.5788 18.3598 23.8558 18.2268 24.0102 18.1584C24.1666 18.0881 24.4115 17.9855 24.5566 17.9285C24.7017 17.8715 24.956 17.7784 25.1218 17.7214C25.2876 17.6644 25.5514 17.5789 25.7059 17.5333C25.8622 17.4877 26.1072 17.4193 26.2522 17.3832C26.3973 17.3471 26.6385 17.292 26.7892 17.2597C26.9399 17.2293 27.1905 17.1818 27.345 17.1552C27.5013 17.1286 27.7595 17.0906 27.9196 17.0697C28.0797 17.0488 28.3567 17.0184 28.5319 17.0013C28.709 16.9861 29.082 16.9652 29.3609 16.9538C29.6416 16.9443 30.024 16.9424 30.2143 16.95L30.5572 16.9633V15.1583C29.9223 15.1811 29.5738 15.1887 29.3722 15.1906L29.0048 15.1963C28.1268 13.2754 27.865 12.7187 27.8537 12.7187C27.8442 12.7206 27.4731 12.7909 27.0322 12.8764L26.2296 13.0303ZM28.8145 17.7803C28.6393 17.7955 28.3171 17.8354 28.0986 17.8677C27.8819 17.8981 27.556 17.9532 27.3732 17.9893C27.1924 18.0254 26.9041 18.09 26.7327 18.1318C26.5631 18.1736 26.3088 18.242 26.1675 18.2838C26.028 18.3237 25.7775 18.4035 25.6117 18.4605C25.4459 18.5175 25.1915 18.6106 25.0465 18.6695C24.9014 18.7265 24.664 18.8253 24.5189 18.8899C24.3739 18.9545 24.0856 19.0951 23.8784 19.2034C23.6711 19.3098 23.3829 19.4694 23.2378 19.5568C23.0927 19.6423 22.8478 19.8 22.6914 19.9045C22.5369 20.0071 22.2826 20.1895 22.1262 20.3073C21.9717 20.4251 21.7381 20.6113 21.6081 20.7196C21.48 20.8298 21.2464 21.0388 21.09 21.1851C20.9355 21.3314 20.6925 21.5784 20.5512 21.7342C20.4099 21.89 20.2158 22.1104 20.1197 22.2263C20.0255 22.3403 19.8616 22.5512 19.7561 22.6918C19.6506 22.8324 19.4773 23.0813 19.3699 23.2428C19.2625 23.4043 19.108 23.6475 19.0289 23.7843C18.9479 23.9193 18.8141 24.1587 18.7312 24.3164C18.6483 24.4722 18.5164 24.7382 18.4392 24.9054C18.362 25.0726 18.2395 25.3595 18.166 25.5419C18.0925 25.7243 17.9814 26.0283 17.9173 26.2164C17.8533 26.4045 17.7591 26.7028 17.7101 26.8814C17.6592 27.0581 17.5933 27.3108 17.5612 27.4419C17.5292 27.573 17.4783 27.8029 17.4482 27.9549C17.4162 28.1069 17.3691 28.3634 17.3427 28.5249C17.3163 28.6864 17.2786 28.96 17.2579 29.1329C17.2372 29.3058 17.207 29.5965 17.1901 29.7789C17.175 29.9613 17.1562 30.3223 17.1486 30.5807L17.1336 31.0519H18.1321C18.1114 30.9265 18.1133 30.7498 18.1246 30.5769C18.134 30.404 18.1547 30.1741 18.1698 30.0639C18.1867 29.9537 18.2207 29.7751 18.2489 29.6649C18.2753 29.5547 18.3299 29.3799 18.3714 29.2754C18.4128 29.1709 18.4788 29.0303 18.5202 28.9619C18.5598 28.8935 18.6333 28.789 18.6822 28.7301C18.7331 28.6712 18.8028 28.5971 18.8386 28.5667C18.8763 28.5363 18.9479 28.4831 18.9988 28.4508C19.0515 28.4166 19.1608 28.3672 19.2437 28.3387C19.3812 28.2931 19.4208 28.2893 19.6676 28.2893C19.8974 28.2912 19.9709 28.2988 20.1197 28.3387C20.2196 28.3653 20.6039 28.5078 20.977 28.656C21.35 28.8023 22.9703 29.4407 24.5755 30.0715L27.4957 31.2191L30.7494 27.9454C28.4415 22.2168 27.7538 20.4897 27.7331 20.4118C27.7124 20.3339 27.6897 20.2047 27.6822 20.1268C27.6747 20.0299 27.6822 19.9387 27.701 19.8418C27.718 19.7639 27.7519 19.6556 27.7783 19.6043C27.8028 19.5511 27.8593 19.4618 27.9045 19.4067C27.9497 19.3497 28.0458 19.2566 28.1174 19.1996C28.1909 19.1426 28.3341 19.0552 28.4377 19.0039C28.5413 18.9526 28.7033 18.8861 28.7957 18.8557C28.8899 18.8253 29.0632 18.7778 29.1819 18.7512C29.3025 18.7246 29.4928 18.6904 29.6058 18.6733C29.7207 18.6581 29.9242 18.6353 30.058 18.6258C30.1936 18.6144 30.3613 18.6068 30.431 18.6068H30.5572V17.7138C29.9374 17.7176 29.6171 17.7252 29.4457 17.7347C29.2761 17.7423 28.9916 17.7632 28.8145 17.7803ZM32.6108 0.0589004C32.6372 0.0893006 33.6546 1.24451 37.0854 5.13573H53.7118L53.7024 31.9354L35.9361 31.9449L32.5354 28.5154L32.5336 14.2729C32.5317 5.66014 32.5373 0.0247002 32.5467 0.0171001C32.5562 0.00760005 32.5863 0.0266002 32.6108 0.0589004ZM39.3726 15.0006C39.2934 15.1279 39.1634 15.3502 39.0824 15.4908C39.0014 15.6314 38.8375 15.943 38.715 16.1843C38.5945 16.4237 38.455 16.7144 38.4061 16.8303C38.3552 16.9443 38.2685 17.1628 38.212 17.3148C38.1555 17.4668 38.0858 17.6834 38.0556 17.7993C38.0274 17.9133 37.9935 18.0843 37.9821 18.1793C37.969 18.2724 37.9671 18.3845 37.9746 18.4263C37.9821 18.47 38.0123 18.5289 38.0462 18.565C38.0782 18.6011 38.1498 18.6581 38.2063 18.6923C38.2648 18.7265 38.3665 18.7778 38.4324 18.8063C38.5003 18.8348 38.5775 18.8652 38.602 18.8747L38.6491 18.8918C38.5718 18.9716 38.5059 19.0647 38.4513 19.1483C38.3985 19.2319 38.3043 19.4029 38.2459 19.5283C38.1856 19.6537 38.0971 19.8589 38.0519 19.9843C38.0048 20.1097 37.9332 20.332 37.8917 20.4783C37.8484 20.6246 37.7843 20.8811 37.7485 21.0483C37.7127 21.2155 37.6637 21.4587 37.643 21.5898C37.6223 21.7209 37.5827 21.9945 37.5582 22.1978C37.5319 22.4011 37.4904 22.6443 37.464 22.7393C37.4396 22.8324 37.3736 23.0376 37.3209 23.1953C37.2662 23.3511 37.1683 23.6076 37.1004 23.7653C37.0326 23.9212 36.897 24.2119 36.799 24.4114C36.701 24.609 36.5559 24.8883 36.4787 25.0289C36.3996 25.1695 36.2507 25.426 36.1471 25.5989C36.0435 25.7718 35.8532 26.0739 35.7251 26.2734C35.5951 26.471 35.3652 26.8092 35.2145 27.0239C35.0619 27.2386 34.8509 27.5255 34.7454 27.6642C34.6399 27.8029 34.5513 27.9226 34.5513 27.9302C34.5513 27.9378 34.9997 28.3976 35.5461 28.9486L36.539 29.9537L38.2685 27.6794L39.9095 25.0574C41.2377 22.4809 41.6598 21.6772 41.705 21.6088C41.7502 21.5404 41.8519 21.4112 41.9329 21.32C42.014 21.2307 42.1383 21.1015 42.2099 21.035C42.2834 20.9685 42.4058 20.8659 42.4831 20.807C42.5622 20.7481 42.6809 20.6702 42.7468 20.6322C42.8147 20.5961 42.9202 20.5524 42.9823 20.5334L43.0954 20.5011C43.2706 20.693 43.378 20.8412 43.4439 20.9552C43.5118 21.0692 43.6267 21.2991 43.7002 21.4663C43.7755 21.6335 43.8848 21.9033 43.9432 22.0648C44.0035 22.2263 44.0977 22.4999 44.1542 22.6728C44.2107 22.8457 44.3143 23.1953 44.3859 23.4518C44.4594 23.7083 44.5367 23.9934 44.5612 24.0884L44.6064 24.2594C46.5469 26.3703 47.1215 26.984 47.1366 26.984C47.1536 26.9859 47.2346 26.9365 47.3194 26.8776C47.4041 26.8168 47.5605 26.6895 47.6641 26.5964C47.7696 26.5014 47.943 26.3285 48.0485 26.2088C48.154 26.091 48.3179 25.8934 48.414 25.7718C48.5119 25.6502 48.6815 25.4184 48.7927 25.2569C48.9057 25.0954 49.0734 24.8389 49.1676 24.6869C49.2599 24.5349 49.4069 24.2879 49.4916 24.1359C49.5783 23.9839 49.7441 23.6722 49.8609 23.4423C49.9777 23.2124 50.151 22.8533 50.2471 22.6443C50.3413 22.4353 50.4845 22.1104 50.5618 21.9223C50.639 21.7342 50.7539 21.4473 50.8161 21.2858C50.8764 21.1243 50.9875 20.8241 51.0591 20.6208C51.1326 20.4175 51.2438 20.0755 51.3097 19.8608C51.3757 19.6461 51.468 19.3174 51.5151 19.1293C51.5622 18.9412 51.6225 18.6752 51.647 18.5403C51.6733 18.4035 51.7091 18.1869 51.728 18.0558C51.7506 17.8924 51.76 17.6948 51.76 17.4288C51.76 17.102 51.7543 17.0108 51.7204 16.8683C51.6997 16.7733 51.6601 16.646 51.6319 16.5833C51.5829 16.4712 51.5829 16.4693 51.5226 16.4826C51.4887 16.4921 51.1948 16.5358 50.867 16.5814C50.541 16.6289 50.0192 16.6973 49.7083 16.7334C49.3974 16.7695 48.9622 16.817 48.738 16.8379C48.5157 16.8588 48.1559 16.8892 47.9373 16.9044C47.7207 16.9215 47.3005 16.9424 47.0047 16.9557C46.7052 16.9671 46.2624 16.9728 46.0024 16.9652C45.7462 16.9595 45.4316 16.9443 45.3053 16.9348C45.1791 16.9234 44.9719 16.9025 44.8475 16.8854C44.7232 16.8702 44.5254 16.8341 44.4048 16.8075C44.2861 16.7809 44.1203 16.7353 44.0374 16.7049C43.9545 16.6745 43.8754 16.6403 43.8584 16.6308C43.8358 16.6156 43.8509 16.5605 43.9583 16.2565C44.028 16.0589 44.0826 15.8974 44.0807 15.8955C44.077 15.8936 43.4138 15.6143 42.6055 15.2742C41.7973 14.9322 41.136 14.6567 41.136 14.6586C41.1341 14.6624 41.0757 14.765 41.0041 14.8866C40.8835 15.0899 40.8704 15.107 40.8346 15.088C40.8138 15.0766 40.6537 14.9873 40.4766 14.8923C40.3014 14.7954 40.0696 14.6719 39.9641 14.6187C39.8586 14.5655 39.7531 14.5218 39.7324 14.5218C39.7079 14.5218 39.6646 14.5636 39.6062 14.6434C39.5572 14.7118 39.4517 14.8714 39.3726 15.0006ZM10.2852 33.0469H28.0609L31.4427 36.4574V50.2268C31.4427 57.8003 31.4389 63.9981 31.4333 63.9981C31.4295 63.9981 31.4013 63.981 31.373 63.962C31.3447 63.943 31.1771 63.848 31 63.7511C30.8248 63.6542 30.5026 63.4832 30.284 63.3692C30.0674 63.2571 29.7283 63.088 29.5304 62.9949C29.3345 62.9018 29.0255 62.7574 28.8428 62.6776C28.6619 62.5959 28.2757 62.4344 27.9855 62.3166C27.6954 62.1988 27.2941 62.043 27.0906 61.9689C26.889 61.8967 26.5367 61.7751 26.3088 61.6991C26.0808 61.6231 25.6795 61.4996 25.4138 61.4236C25.1501 61.3457 24.7017 61.2222 24.4153 61.1481C24.1308 61.074 23.6184 60.9448 23.2755 60.8612C22.9345 60.7776 22.3787 60.6446 22.0414 60.5667C21.7061 60.4869 21.1296 60.3558 20.7603 60.2741C20.3929 60.1924 19.8202 60.0689 19.4886 59.9986C19.157 59.9283 18.6276 59.8162 18.3111 59.7478C17.9965 59.6813 17.5839 59.5863 17.3973 59.5388C17.2108 59.4913 16.932 59.4115 16.7756 59.3602C16.6211 59.3089 16.3461 59.2082 16.1633 59.136C15.9824 59.0638 15.7036 58.9479 15.5416 58.8776C15.3814 58.8073 15.1309 58.6914 14.9858 58.623C14.8407 58.5527 14.5996 58.4254 14.4488 58.3418C14.3 58.2563 14.0909 58.1347 13.9873 58.0682C13.8836 58.0036 13.7103 57.8858 13.601 57.8079C13.4936 57.7281 13.3279 57.6027 13.2336 57.5286C13.1413 57.4526 12.9586 57.293 12.8286 57.1733C12.7005 57.0536 12.5026 56.8541 12.3896 56.7287C12.2785 56.6052 12.1089 56.4019 12.0128 56.2784C11.9186 56.1549 11.7943 55.9876 11.7396 55.9078C11.685 55.8261 11.5701 55.6456 11.4872 55.505C11.4043 55.3644 11.2648 55.1022 11.1782 54.9255C11.0915 54.7469 10.9709 54.4733 10.9088 54.3175C10.8485 54.1598 10.758 53.909 10.7091 53.757C10.662 53.605 10.5847 53.3276 10.5395 53.1395C10.4924 52.9514 10.4302 52.6436 10.4001 52.4555C10.3681 52.2674 10.3304 51.9976 10.3153 51.857C10.2889 51.6309 10.2852 50.508 10.2852 42.3228V33.0469ZM27.4542 35.1939C27.4335 35.2414 27.3487 35.439 27.264 35.6309L27.1095 35.9824C26.4745 36.066 26.2598 36.0983 26.2202 36.1078C26.1806 36.1173 26.1222 36.1496 26.0902 36.1781C26.0582 36.2066 26.0205 36.2522 26.0073 36.2769C25.9941 36.3035 25.9602 36.4859 25.9338 36.6816C25.9075 36.8773 25.8735 37.0616 25.8604 37.0901C25.8453 37.1186 25.8038 37.1699 25.7662 37.2041C25.7285 37.2383 25.6701 37.2706 25.6362 37.2763C25.6022 37.2801 25.4308 37.3048 25.2537 37.3295C25.022 37.3599 24.9165 37.3827 24.8675 37.4112C24.8317 37.434 24.7846 37.4872 24.7601 37.5347C24.7281 37.5974 24.7017 37.7304 24.6489 38.1009C24.6094 38.3859 24.566 38.6291 24.5434 38.6899C24.5227 38.7488 24.485 38.8248 24.4624 38.8609C24.4398 38.8989 24.3927 38.9559 24.3569 38.9882C24.323 39.0224 24.2514 39.068 24.1987 39.0908C24.1327 39.1193 24.0687 39.1326 23.982 39.1307C23.8972 39.1307 23.8068 39.1117 23.6805 39.0699C23.5826 39.0357 23.3829 38.9578 23.2378 38.8951C23.0927 38.8343 22.6782 38.6348 22.3146 38.4543C21.9529 38.2738 21.4781 38.0306 21.2596 37.9128C21.0429 37.7969 20.8187 37.6867 20.7603 37.6715C20.6925 37.6506 20.6209 37.643 20.5437 37.6506C20.4815 37.6563 20.3967 37.6753 20.3552 37.6924C20.3138 37.7095 20.2516 37.7418 20.2177 37.7646C20.1838 37.7874 20.0312 37.9603 19.8805 38.1484C19.7279 38.3365 19.498 38.6196 19.368 38.7754C19.2399 38.9331 19.027 39.1858 18.897 39.3359C18.767 39.4879 18.5259 39.7654 18.3601 39.9534C18.1943 40.1416 17.8872 40.4798 17.6799 40.704C17.4727 40.9282 17.062 41.3595 16.7662 41.6616C16.4723 41.9637 16.0258 42.4045 15.7771 42.642C15.5284 42.8795 15.2194 43.1721 15.0894 43.2899C14.9594 43.4096 14.7183 43.6281 14.5525 43.7744C14.3867 43.9207 14.0815 44.1867 13.8742 44.3634C13.667 44.5401 13.2657 44.8745 12.9793 45.1044C12.6948 45.3324 12.367 45.5946 12.2502 45.682C12.1353 45.7713 12.0448 45.8492 12.0524 45.8549C12.0599 45.8606 12.2483 45.891 12.4706 45.9195C12.789 45.9613 12.9152 45.9708 13.0547 45.9613C13.1545 45.9537 13.3071 45.9366 13.3938 45.9214C13.4823 45.9062 13.6293 45.872 13.7197 45.8454C13.8102 45.8188 13.9891 45.7504 14.1154 45.6953C14.2416 45.6402 14.4564 45.5319 14.5901 45.4559C14.7258 45.3799 14.9425 45.2469 15.0706 45.1614C15.2006 45.074 15.4248 44.9068 15.5698 44.789C15.7149 44.6693 16.1784 44.2855 16.5966 43.934C17.0168 43.5825 17.5292 43.155 17.7365 42.984C17.9437 42.813 18.3262 42.5014 18.5843 42.2943C18.8443 42.0853 19.2418 41.7737 19.4698 41.6008C19.6977 41.4279 20.0124 41.2018 20.1668 41.0973C20.3232 40.9928 20.5173 40.875 20.6002 40.8332C20.6831 40.7933 20.7848 40.7553 20.8263 40.7496C20.8847 40.7401 20.9092 40.7458 20.9299 40.7724C20.9487 40.7933 20.9581 40.8427 20.9581 40.9016C20.9563 40.9643 20.9336 41.0536 20.8941 41.1505C20.8602 41.2341 20.7829 41.3937 20.7189 41.502C20.6567 41.6122 20.5116 41.844 20.3967 42.015C20.2818 42.1879 20.0463 42.5166 19.8748 42.7465C19.7034 42.9764 19.4114 43.3621 19.223 43.6015C19.0364 43.8428 18.7011 44.2665 18.4788 44.542C18.2583 44.8194 17.7704 45.4274 17.3973 45.891C17.0224 46.3565 16.5533 46.9474 16.3536 47.202C16.1539 47.4585 15.8393 47.8689 15.6565 48.114C15.4738 48.361 15.2307 48.703 15.1158 48.874C15.0009 49.0469 14.8577 49.273 14.7993 49.3775C14.739 49.482 14.6636 49.6321 14.6335 49.71C14.6014 49.7898 14.5713 49.8962 14.5675 49.9475C14.56 50.0273 14.5657 50.0501 14.5996 50.0805C14.6372 50.1166 14.6467 50.1166 14.7183 50.0938C14.7635 50.0805 14.8539 50.0368 14.9198 50.0007C14.9877 49.9627 15.1233 49.8753 15.2213 49.8088C15.3211 49.7404 15.502 49.6074 15.6264 49.5143C15.7507 49.4193 15.9975 49.2255 16.1727 49.0849C16.3498 48.9424 16.7737 48.5909 17.1147 48.304C17.4576 48.0171 18.1905 47.3939 18.7444 46.9189C19.3002 46.4439 19.9992 45.8492 20.2987 45.5965C20.6002 45.3438 21.041 44.9809 21.2784 44.7871C21.5177 44.5952 21.87 44.3178 22.0603 44.1734C22.2525 44.0271 22.5275 43.8295 22.6726 43.7326C22.8177 43.6357 23.0136 43.5179 23.1059 43.4704C23.202 43.4229 23.3188 43.3773 23.3735 43.3697C23.4582 43.3564 23.4771 43.3602 23.511 43.3925C23.5336 43.4153 23.5505 43.4552 23.5505 43.4875C23.5505 43.5198 23.5355 43.592 23.5204 43.649C23.5034 43.7079 23.445 43.8447 23.3904 43.953C23.3358 44.0632 23.2359 44.2475 23.1681 44.3615C23.1003 44.4774 22.9156 44.7586 22.7574 44.9885C22.601 45.2184 22.3938 45.5091 22.2996 45.6345C22.2054 45.7599 21.8154 46.2691 21.431 46.765C21.0486 47.2628 20.5568 47.9069 20.3402 48.1995C20.1235 48.4921 19.8635 48.8569 19.7618 49.007C19.6619 49.159 19.5131 49.3946 19.4321 49.5295C19.3511 49.6663 19.2248 49.8962 19.1495 50.0425C19.076 50.1888 18.9799 50.3997 18.9385 50.508C18.8951 50.6182 18.8386 50.7854 18.8104 50.8785C18.784 50.9735 18.7406 51.1483 18.7162 51.268C18.6898 51.3896 18.6596 51.6062 18.6483 51.7525C18.6314 51.9558 18.6314 52.085 18.6483 52.2997C18.6596 52.4536 18.6766 52.598 18.686 52.6227C18.6992 52.6607 18.848 52.4897 19.9841 51.1445C21.0128 49.9247 21.4442 49.4307 22.1677 48.6441L23.0682 47.6637C25.3083 45.5813 25.5344 45.3818 26.0262 44.9904C26.337 44.7434 26.6253 44.5078 26.6667 44.4679C26.7082 44.428 26.7666 44.3539 26.7929 44.3026C26.8212 44.2513 26.8514 44.1639 26.8608 44.105C26.8702 44.048 26.8721 43.9492 26.8627 43.8865C26.8551 43.82 26.8231 43.725 26.7892 43.6585C26.7553 43.5958 26.6328 43.3659 26.5179 43.1455C26.4011 42.927 26.1957 42.5242 26.0601 42.2525C25.9244 41.9808 25.7492 41.6103 25.6682 41.426C25.5891 41.2436 25.493 41.0042 25.4553 40.894C25.4007 40.7306 25.3875 40.6679 25.3875 40.5425C25.3875 40.4209 25.3969 40.3695 25.4346 40.2878C25.4628 40.2232 25.5156 40.153 25.574 40.1017C25.6267 40.0561 25.7153 40.0009 25.7718 39.9782C25.8359 39.9554 26.0846 39.9097 26.403 39.866C26.8382 39.8052 26.9418 39.7843 26.9945 39.7482C27.0303 39.7254 27.0737 39.6817 27.0925 39.6494C27.117 39.6114 27.1434 39.4803 27.1754 39.2409C27.2018 39.049 27.2395 38.8571 27.2564 38.8153C27.2753 38.7754 27.3129 38.7222 27.3412 38.6975C27.3695 38.6728 27.4241 38.6443 27.4637 38.6348C27.5032 38.6253 27.6747 38.5987 27.8442 38.5759C28.0383 38.5493 28.1834 38.5208 28.2267 38.498C28.27 38.4752 28.3152 38.4315 28.3416 38.3821C28.3793 38.3156 28.3981 38.2168 28.4471 37.8539C28.481 37.6088 28.5131 37.4017 28.5206 37.396C28.5262 37.3903 28.7165 37.2991 28.9426 37.1965C29.1687 37.0939 29.3533 37.0046 29.3533 36.9989C29.3533 36.9951 28.9332 36.5676 28.4207 36.0489L27.49 35.1084L27.4542 35.1939ZM35.938 33.0469H53.7137V42.3152C53.7137 48.7866 53.7081 51.6309 53.693 51.743C53.6817 51.8323 53.6572 52.0299 53.6365 52.18C53.6158 52.332 53.5705 52.6018 53.5347 52.7785C53.4989 52.9571 53.4349 53.2269 53.3934 53.377C53.3539 53.529 53.2766 53.7817 53.2239 53.9375C53.1711 54.0952 53.075 54.3479 53.011 54.498C52.9488 54.65 52.8339 54.8989 52.7566 55.049C52.6794 55.201 52.5569 55.4233 52.4853 55.543C52.4119 55.6646 52.2913 55.8527 52.214 55.9611C52.1387 56.0713 52.0049 56.2518 51.9183 56.3601C51.8297 56.4703 51.6714 56.6546 51.5659 56.7686C51.4586 56.8845 51.2815 57.0631 51.1722 57.1657C51.0629 57.2683 50.8613 57.4431 50.7276 57.5514C50.5919 57.6616 50.3507 57.8383 50.1906 57.9466C50.0305 58.053 49.8044 58.1955 49.6913 58.262C49.5764 58.3266 49.3277 58.4596 49.1356 58.5565C48.9434 58.6534 48.6043 58.8111 48.3819 58.908C48.1596 59.003 47.845 59.1341 47.6849 59.1949C47.5247 59.2576 47.2741 59.345 47.1291 59.3906C46.984 59.4362 46.692 59.516 46.4791 59.5692C46.2662 59.6205 45.9478 59.6946 45.7726 59.7307C45.5955 59.7687 45.1037 59.8732 44.6798 59.9625C44.2541 60.0518 43.5815 60.1981 43.182 60.2855C42.7826 60.3748 42.1477 60.5211 41.769 60.6085C41.3903 60.6978 40.7422 60.8555 40.3278 60.9581C39.9133 61.0626 39.3952 61.1956 39.1785 61.2545C38.96 61.3134 38.6265 61.4084 38.4343 61.4654C38.2421 61.5205 37.8653 61.6402 37.5959 61.7314C37.3265 61.8207 36.8932 61.9727 36.6351 62.0715C36.3751 62.1684 35.9907 62.3204 35.7778 62.4078C35.565 62.4971 35.2051 62.6529 34.9771 62.7555C34.7492 62.8581 34.2782 63.0861 33.9315 63.2609C33.5848 63.4357 33.1308 63.6732 32.9236 63.7891C32.7163 63.905 32.5449 64 32.5411 64C32.5392 63.9981 32.5354 57.806 32.5279 36.4764L35.938 33.0469ZM38.2836 34.8899L36.5409 35.1236L34.4798 37.1984C34.4609 37.3751 34.4402 37.5461 34.4195 37.6924C34.3987 37.8387 34.3366 38.2548 34.28 38.6139C34.2235 38.9749 34.1519 39.4575 34.1199 39.6875C34.0898 39.9174 34.0445 40.2727 34.0238 40.476C33.9974 40.7211 33.9805 41.0403 33.9748 41.4165C33.9673 41.7889 33.9711 42.0758 33.9861 42.243C33.9993 42.3855 34.0238 42.5907 34.0445 42.699C34.0634 42.8092 34.0954 42.9669 34.1161 43.0505C34.1387 43.1341 34.1821 43.2804 34.216 43.3735C34.248 43.4685 34.3121 43.6224 34.3592 43.7155C34.4063 43.8105 34.4967 43.9644 34.5608 44.0575C34.6229 44.1525 34.7473 44.3026 34.8358 44.39C34.9244 44.4793 35.0713 44.6047 35.1655 44.6693C35.2579 44.732 35.4105 44.8232 35.5047 44.8707C35.597 44.9182 35.7496 44.9828 35.8438 45.017C35.9361 45.0493 36.0944 45.0968 36.1923 45.1215C36.2903 45.1462 36.4938 45.1861 36.6445 45.2108C36.88 45.2469 36.9949 45.2526 37.4735 45.2526C37.8842 45.2545 38.1121 45.245 38.3495 45.2203C38.5247 45.2013 38.8017 45.1652 38.9618 45.1386C39.122 45.1139 39.2614 45.093 39.2727 45.093C39.284 45.093 39.2878 45.1728 39.284 45.3077C39.2784 45.4597 39.2859 45.5623 39.3085 45.663C39.3255 45.7428 39.3631 45.8568 39.3933 45.9195C39.4215 45.9822 39.4837 46.0848 39.5289 46.1456C39.5741 46.2064 39.6665 46.2995 39.7343 46.3508C39.8021 46.4021 39.9076 46.4705 39.9698 46.499C40.032 46.5294 40.1412 46.5674 40.2147 46.5845C40.3127 46.6092 40.4069 46.6149 40.5802 46.6111L40.8138 46.6035C41.3319 47.1488 41.5731 47.4091 41.6842 47.5345C41.7973 47.6599 41.9951 47.8917 42.1251 48.0475C42.2532 48.2052 42.4416 48.4446 42.5434 48.5795C42.6432 48.7163 42.7902 48.9291 42.8712 49.0545C42.9503 49.1799 43.0615 49.3775 43.1161 49.4915C43.1726 49.6074 43.2367 49.7575 43.2593 49.824C43.2838 49.8962 43.3045 50.0159 43.3083 50.109C43.3139 50.2002 43.3083 50.3047 43.297 50.3465C43.2857 50.3883 43.2348 50.4738 43.1858 50.5365C43.1293 50.6087 43.0634 50.6657 43.0031 50.698C42.9277 50.736 42.8825 50.7455 42.777 50.7455C42.6941 50.7436 42.5924 50.7284 42.5038 50.6999C42.4266 50.6771 42.2909 50.6201 42.2024 50.5745C42.1138 50.5308 41.965 50.4434 41.8727 50.3807C41.7785 50.318 41.6258 50.2078 41.5335 50.1337C41.4393 50.0615 41.266 49.9171 41.1473 49.8126C41.0286 49.71 40.7517 49.4459 40.5331 49.2255C40.3146 49.007 40.0696 48.7562 39.9867 48.6669C39.9057 48.5795 39.8097 48.4959 39.7757 48.4826C39.7418 48.4674 39.6627 48.456 39.5968 48.456C39.5063 48.456 39.4536 48.4693 39.3613 48.513C39.2972 48.5453 39.203 48.6118 39.154 48.6612C39.1031 48.7106 39.0391 48.8018 39.0071 48.8645C38.9618 48.9614 38.9524 49.0013 38.9524 49.121C38.9524 49.2255 38.9618 49.2825 38.9882 49.33C39.0089 49.368 39.2237 49.5979 39.4686 49.843C39.7136 50.09 40.0376 50.4016 40.1865 50.5384C40.3372 50.6733 40.535 50.85 40.6292 50.9279C40.7215 51.0077 40.8704 51.1274 40.9589 51.1958C41.0475 51.2642 41.2076 51.3801 41.3169 51.4542C41.4261 51.5264 41.59 51.6309 41.6842 51.6822C41.7766 51.7354 41.9386 51.8133 42.0422 51.8551C42.1458 51.8969 42.306 51.9501 42.4002 51.9748C42.5321 52.0071 42.6225 52.0166 42.8052 52.0147C42.9786 52.0147 43.0784 52.0033 43.182 51.9767C43.2593 51.9558 43.3874 51.9083 43.4646 51.8703C43.5419 51.8342 43.6775 51.7525 43.7661 51.6898C43.8546 51.6252 43.9941 51.5074 44.0751 51.4257C44.158 51.344 44.2729 51.2053 44.3313 51.116C44.3878 51.0286 44.4594 50.8918 44.4877 50.812C44.5159 50.7341 44.5517 50.6106 44.5668 50.5365C44.5819 50.4643 44.5951 50.3009 44.5951 50.1755C44.5951 50.0501 44.5819 49.8715 44.5668 49.7765C44.5498 49.6834 44.5159 49.5295 44.4896 49.4345C44.4632 49.3414 44.4029 49.1704 44.3558 49.0545C44.3087 48.9405 44.2258 48.7562 44.1693 48.646C44.1146 48.5377 44.011 48.3515 43.9413 48.2337C43.8697 48.1159 43.7416 47.9145 43.6531 47.7872C43.5645 47.6599 43.4138 47.4528 43.3158 47.3274C43.2178 47.2001 43.0615 47.0082 42.9692 46.898C42.8768 46.7897 42.6677 46.556 42.5057 46.3793C42.3437 46.2026 42.1082 45.9613 41.98 45.8416L41.7502 45.625C41.7785 45.5148 41.7879 45.4065 41.7879 45.3115C41.7879 45.2184 41.7747 45.0892 41.7596 45.0265C41.7445 44.9638 41.6993 44.8498 41.6598 44.77C41.6108 44.6693 41.5505 44.5876 41.4487 44.485C41.3715 44.4071 41.2603 44.3159 41.2038 44.2817C41.1473 44.2475 41.0361 44.1962 40.9589 44.1696C40.8308 44.1221 40.7912 44.1183 40.5482 44.1164C40.4012 44.1164 40.2807 44.1107 40.2807 44.105C40.2807 44.1012 40.5312 43.8447 40.8364 43.535L41.3922 42.9745L46.8465 48.475C47.0895 49.2635 47.1743 49.5257 47.1931 49.5675C47.2157 49.6207 47.2459 49.6549 47.2949 49.6777C47.3325 49.6948 47.3815 49.71 47.4023 49.71C47.423 49.71 47.4625 49.7024 47.4908 49.691C47.5191 49.6796 48.1106 49.1001 48.8021 48.4028C49.4935 47.7055 50.0738 47.1127 50.0889 47.0842C50.1021 47.0557 50.1152 47.0044 50.1152 46.9702C50.1152 46.936 50.1002 46.8828 50.0813 46.8505C50.0625 46.8201 50.0173 46.7802 49.9815 46.7631C49.9457 46.746 49.6857 46.6605 49.405 46.5731L48.8906 46.4135L43.4364 40.9149C44.1241 40.2137 44.3539 39.9649 44.3916 39.9059C44.4293 39.8489 44.4896 39.7388 44.5272 39.6589C44.5649 39.581 44.6101 39.448 44.6309 39.3644C44.6516 39.2808 44.678 39.1193 44.6874 39.0034C44.6987 38.8894 44.7081 38.688 44.7081 38.5569C44.7081 38.4277 44.6949 38.2092 44.6798 38.0724C44.6629 37.9375 44.6271 37.7228 44.5969 37.5974C44.5668 37.472 44.5103 37.2839 44.4726 37.1794C44.4349 37.0749 44.352 36.8925 44.2899 36.7709C44.2277 36.6512 44.1297 36.484 44.0713 36.4004C44.0148 36.3168 43.9112 36.18 43.8415 36.0964C43.7717 36.0128 43.6549 35.8893 43.5852 35.8209C43.5136 35.7525 43.3742 35.6347 43.2762 35.5587C43.1783 35.4808 43.0257 35.3744 42.9371 35.3193C42.8486 35.2642 42.6884 35.173 42.5792 35.1179C42.4699 35.0628 42.2966 34.9849 42.1929 34.945C42.0893 34.9051 41.9329 34.85 41.8444 34.8234C41.7558 34.7987 41.6127 34.7607 41.5241 34.7398C41.4356 34.7189 41.2754 34.6885 41.1661 34.6714C41.055 34.6543 40.8063 34.6391 40.6009 34.6353C40.3993 34.6315 40.1865 34.6334 40.1299 34.641C40.0734 34.6486 39.2426 34.7607 38.2836 34.8899ZM25.5005 20.7462C25.6211 20.75 25.7699 20.7709 25.8585 20.7918C25.9414 20.8146 26.0638 20.8583 26.1317 20.8887C26.1995 20.921 26.305 20.9837 26.3672 21.0293C26.4293 21.0749 26.5198 21.1528 26.5669 21.2041C26.6159 21.2554 26.6856 21.339 26.7251 21.3903C26.7628 21.4435 26.8269 21.5499 26.8664 21.6278C26.9041 21.7076 27.4938 23.1706 29.4099 27.9929L28.4999 28.9258C28.0006 29.4369 27.5824 29.853 27.5729 29.8492C27.5616 29.8454 26.1166 29.2887 24.3607 28.6104C22.6048 27.934 21.1239 27.3621 21.0731 27.3393C21.0203 27.3165 20.9186 27.2595 20.847 27.212C20.7735 27.1645 20.6642 27.079 20.6039 27.0239C20.5437 26.9669 20.4513 26.8567 20.4023 26.7769C20.3496 26.6952 20.2837 26.5584 20.2497 26.4539C20.1913 26.281 20.1895 26.262 20.1876 25.9599C20.1876 25.7224 20.1951 25.6084 20.2215 25.4849C20.2422 25.3975 20.2855 25.2379 20.3195 25.1334C20.3534 25.0289 20.4193 24.8541 20.4683 24.7439C20.5154 24.6356 20.6058 24.4513 20.668 24.3354C20.7321 24.2214 20.8621 24.0067 20.96 23.8603C21.0561 23.714 21.2181 23.4917 21.318 23.3663C21.416 23.2409 21.5968 23.0281 21.7193 22.8932C21.8399 22.7583 22.0584 22.536 22.2035 22.4011C22.3485 22.2662 22.5765 22.0648 22.7122 21.9565C22.8459 21.8482 23.089 21.6696 23.2491 21.5613C23.4092 21.4549 23.6297 21.3181 23.7389 21.2592C23.8482 21.2003 24.0178 21.1148 24.1158 21.0692C24.2137 21.0236 24.3795 20.9571 24.4831 20.921C24.5868 20.8849 24.7469 20.8355 24.8411 20.8146C24.9334 20.7918 25.0747 20.7652 25.152 20.7557C25.2292 20.7462 25.3856 20.7405 25.5005 20.7462ZM41.1454 35.6195C41.2132 35.6271 41.3414 35.6499 41.4299 35.6689C41.5185 35.6879 41.6579 35.7259 41.7408 35.7544C41.8237 35.7829 41.98 35.8475 42.0893 35.8988C42.1986 35.952 42.3286 36.0223 42.3813 36.0546C42.4322 36.0869 42.5434 36.1667 42.6263 36.2313C42.7092 36.2959 42.858 36.4327 42.956 36.5372C43.0539 36.6398 43.1896 36.8051 43.2555 36.9058C43.3233 37.0046 43.4232 37.1756 43.476 37.2839C43.5306 37.3941 43.6097 37.586 43.6512 37.7114C43.6926 37.8368 43.7435 38.0249 43.7661 38.1294C43.7868 38.2339 43.8094 38.4049 43.817 38.5094C43.8264 38.6766 43.8226 38.7108 43.7868 38.7944C43.7548 38.8704 43.6549 38.9825 43.2894 39.3511C42.9673 39.676 42.8203 39.811 42.7902 39.811C42.7676 39.811 42.7431 39.8014 42.7355 39.7882C42.728 39.7748 42.7223 39.486 42.7205 39.1459C42.7186 38.6652 42.711 38.4866 42.6847 38.3384C42.6677 38.2339 42.6319 38.0591 42.6055 37.9489C42.5792 37.8406 42.5283 37.6601 42.4925 37.5499C42.4548 37.4416 42.3795 37.2573 42.3248 37.1414C42.2702 37.0274 42.1571 36.8298 42.0742 36.7044C41.9913 36.579 41.8576 36.4042 41.7747 36.3168C41.6937 36.2294 41.5561 36.1021 41.4676 36.0318C41.379 35.9634 41.2396 35.8684 41.1567 35.8209C41.0625 35.7658 41.0041 35.7202 41.0004 35.6974C40.9966 35.6765 41.0004 35.648 41.006 35.6328C41.0173 35.6138 41.0475 35.61 41.1454 35.6195Z" fill="black"/>
<path d="M77.75 5.03C79.41 5.03 80.72 5.22 81.68 5.6C82.64 5.98 83.33 6.64 83.75 7.58C84.17 8.5 84.38 9.81 84.38 11.51C84.38 13.21 84.17 14.53 83.75 15.47C83.35 16.41 82.68 17.07 81.74 17.45C80.82 17.81 79.58 17.99 78.02 17.99C77.18 17.99 76.37 17.97 75.59 17.93C74.83 17.89 74.13 17.84 73.49 17.78C72.85 17.7 72.3 17.62 71.84 17.54C71.4 17.46 71.09 17.39 70.91 17.33L71 15.71C72.06 15.71 73.16 15.71 74.3 15.71C75.44 15.71 76.57 15.71 77.69 15.71C78.69 15.69 79.48 15.57 80.06 15.35C80.66 15.11 81.08 14.69 81.32 14.09C81.58 13.47 81.71 12.61 81.71 11.51C81.71 10.39 81.58 9.53 81.32 8.93C81.08 8.33 80.66 7.91 80.06 7.67C79.48 7.43 78.69 7.31 77.69 7.31C76.05 7.31 74.63 7.32 73.43 7.34C72.25 7.36 71.45 7.39 71.03 7.43L70.61 5.3C71.37 5.22 72.08 5.16 72.74 5.12C73.4 5.08 74.12 5.06 74.9 5.06C75.68 5.04 76.63 5.03 77.75 5.03ZM73.25 5.3V26H70.61V5.3H73.25ZM94.1288 11.03C95.8088 11.03 97.1488 11.28 98.1488 11.78C99.1488 12.28 99.8688 13.1 100.309 14.24C100.769 15.36 100.999 16.85 100.999 18.71C100.999 20.57 100.769 22.07 100.309 23.21C99.8688 24.33 99.1488 25.14 98.1488 25.64C97.1488 26.14 95.8088 26.39 94.1288 26.39C92.4488 26.39 91.0988 26.14 90.0788 25.64C89.0788 25.14 88.3488 24.33 87.8888 23.21C87.4488 22.07 87.2288 20.57 87.2288 18.71C87.2288 16.85 87.4488 15.36 87.8888 14.24C88.3488 13.1 89.0788 12.28 90.0788 11.78C91.0988 11.28 92.4488 11.03 94.1288 11.03ZM94.1288 13.19C93.0688 13.19 92.2288 13.36 91.6088 13.7C90.9888 14.02 90.5488 14.58 90.2888 15.38C90.0288 16.18 89.8988 17.29 89.8988 18.71C89.8988 20.13 90.0288 21.24 90.2888 22.04C90.5488 22.84 90.9888 23.41 91.6088 23.75C92.2288 24.07 93.0688 24.23 94.1288 24.23C95.1888 24.23 96.0188 24.07 96.6188 23.75C97.2388 23.41 97.6788 22.84 97.9388 22.04C98.1988 21.24 98.3288 20.13 98.3288 18.71C98.3288 17.29 98.1988 16.18 97.9388 15.38C97.6788 14.58 97.2388 14.02 96.6188 13.7C96.0188 13.36 95.1888 13.19 94.1288 13.19ZM108.692 11.15C110.312 11.15 111.602 11.26 112.562 11.48C113.522 11.68 114.212 12.06 114.632 12.62C115.072 13.18 115.292 13.99 115.292 15.05C115.292 16.09 115.062 16.89 114.602 17.45C114.162 18.01 113.362 18.34 112.202 18.44V18.53C113.502 18.63 114.422 18.99 114.962 19.61C115.522 20.23 115.802 21.16 115.802 22.4C115.802 23.42 115.592 24.21 115.172 24.77C114.752 25.33 114.082 25.72 113.162 25.94C112.242 26.16 111.032 26.27 109.532 26.27C108.632 26.27 107.672 26.23 106.652 26.15C105.632 26.09 104.662 25.98 103.742 25.82L103.952 23.87C104.612 23.93 105.432 23.99 106.412 24.05C107.412 24.09 108.392 24.11 109.352 24.11C110.832 24.11 111.832 23.96 112.352 23.66C112.892 23.34 113.162 22.74 113.162 21.86C113.162 21.24 113.042 20.76 112.802 20.42C112.582 20.08 112.192 19.84 111.632 19.7C111.092 19.56 110.352 19.49 109.412 19.49H105.902V17.63L109.382 17.6C110.262 17.6 110.942 17.54 111.422 17.42C111.922 17.28 112.272 17.05 112.472 16.73C112.672 16.41 112.772 15.96 112.772 15.38C112.772 14.8 112.642 14.37 112.382 14.09C112.142 13.79 111.732 13.59 111.152 13.49C110.572 13.37 109.762 13.31 108.722 13.31C107.942 13.31 107.162 13.33 106.382 13.37C105.602 13.41 104.942 13.47 104.402 13.55L104.192 11.6C105.012 11.4 105.812 11.28 106.592 11.24C107.392 11.18 108.092 11.15 108.692 11.15ZM132.035 11.39C131.715 12.25 131.405 13.04 131.105 13.76C130.825 14.46 130.535 15.08 130.235 15.62C129.955 16.16 129.635 16.62 129.275 17C128.935 17.38 128.535 17.69 128.075 17.93C127.615 18.15 127.075 18.29 126.455 18.35V18.44C127.115 18.5 127.685 18.64 128.165 18.86C128.645 19.08 129.065 19.39 129.425 19.79C129.805 20.17 130.145 20.65 130.445 21.23C130.765 21.81 131.085 22.5 131.405 23.3C131.725 24.08 132.075 24.98 132.455 26H129.785C129.425 25.06 129.095 24.23 128.795 23.51C128.495 22.77 128.195 22.14 127.895 21.62C127.615 21.1 127.305 20.68 126.965 20.36C126.625 20.02 126.225 19.78 125.765 19.64C125.325 19.48 124.805 19.4 124.205 19.4V17.42C124.925 17.42 125.535 17.29 126.035 17.03C126.535 16.75 126.965 16.35 127.325 15.83C127.705 15.31 128.055 14.68 128.375 13.94C128.695 13.2 129.035 12.35 129.395 11.39H132.035ZM122.315 11.39V15.74C122.315 16.18 122.285 16.62 122.225 17.06C122.165 17.5 122.075 17.93 121.955 18.35C122.075 18.77 122.165 19.19 122.225 19.61C122.285 20.03 122.315 20.43 122.315 20.81V26H119.765V11.39H122.315ZM125.165 17.42V19.4H121.565V17.42H125.165ZM147.549 11.39V13.4H142.209C141.589 13.4 141.139 13.54 140.859 13.82C140.599 14.08 140.419 14.55 140.319 15.23C140.219 16.11 140.099 17.01 139.959 17.93C139.839 18.85 139.699 19.74 139.539 20.6C139.379 21.46 139.169 22.23 138.909 22.91C138.669 23.61 138.339 24.2 137.919 24.68C137.499 25.16 136.989 25.52 136.389 25.76C135.809 26 135.119 26.13 134.319 26.15L134.049 24.2C134.589 24.06 135.019 23.9 135.339 23.72C135.679 23.54 135.939 23.32 136.119 23.06C136.319 22.8 136.489 22.5 136.629 22.16C136.809 21.68 136.969 21.13 137.109 20.51C137.249 19.89 137.369 19.24 137.469 18.56C137.569 17.88 137.649 17.22 137.709 16.58C137.789 15.92 137.859 15.33 137.919 14.81C138.059 13.69 138.419 12.84 138.999 12.26C139.599 11.68 140.509 11.39 141.729 11.39H147.549ZM147.939 11.39V26H145.389V11.39H147.939ZM159.624 11.03C160.704 11.03 161.614 11.18 162.354 11.48C163.094 11.76 163.654 12.24 164.034 12.92C164.414 13.6 164.604 14.53 164.604 15.71V26H162.594L162.204 22.82L162.054 22.49V15.71C162.034 14.81 161.824 14.17 161.424 13.79C161.024 13.39 160.244 13.19 159.084 13.19C158.304 13.19 157.334 13.23 156.174 13.31C155.034 13.39 153.904 13.48 152.784 13.58L152.544 11.69C153.224 11.57 153.974 11.46 154.794 11.36C155.614 11.26 156.444 11.18 157.284 11.12C158.124 11.06 158.904 11.03 159.624 11.03ZM163.404 17L163.374 18.92L156.414 18.95C155.714 18.97 155.214 19.16 154.914 19.52C154.634 19.86 154.494 20.34 154.494 20.96V21.89C154.494 22.65 154.674 23.21 155.034 23.57C155.414 23.91 155.994 24.08 156.774 24.08C157.334 24.08 157.964 23.98 158.664 23.78C159.384 23.56 160.104 23.23 160.824 22.79C161.544 22.35 162.204 21.79 162.804 21.11V23C162.604 23.28 162.294 23.61 161.874 23.99C161.474 24.35 160.984 24.71 160.404 25.07C159.844 25.41 159.214 25.7 158.514 25.94C157.814 26.16 157.064 26.27 156.264 26.27C155.404 26.27 154.644 26.12 153.984 25.82C153.324 25.5 152.814 25.04 152.454 24.44C152.094 23.82 151.914 23.07 151.914 22.19V20.6C151.914 19.46 152.264 18.58 152.964 17.96C153.684 17.32 154.684 17 155.964 17H163.404ZM180.977 11.39V13.4H175.757C174.637 13.4 174.027 13.99 173.927 15.17C173.827 16.61 173.647 17.96 173.387 19.22C173.127 20.48 172.757 21.67 172.277 22.79C171.817 23.89 171.187 24.96 170.387 26H168.257C169.037 24.84 169.647 23.65 170.087 22.43C170.547 21.19 170.897 19.93 171.137 18.65C171.377 17.35 171.537 16.05 171.617 14.75C171.697 13.63 172.037 12.79 172.637 12.23C173.257 11.67 174.157 11.39 175.337 11.39H180.977ZM169.637 25.85L169.397 30.32H167.747V25.85H169.637ZM183.347 23.96V26H167.747V23.96H183.347ZM183.347 25.85V30.32H181.667L181.427 25.85H183.347ZM181.337 11.39V26H178.907V11.39H181.337Z" fill="black"/>
<path d="M90.752 34.16C90.2 35.96 89.732 37.496 89.348 38.768C88.964 40.04 88.592 41.108 88.232 41.972C87.872 42.836 87.464 43.544 87.008 44.096C86.576 44.624 86.036 45.032 85.388 45.32C84.74 45.608 83.924 45.812 82.94 45.932V46.148C83.972 46.292 84.824 46.508 85.496 46.796C86.192 47.06 86.78 47.48 87.26 48.056C87.764 48.608 88.22 49.352 88.628 50.288C89.036 51.224 89.456 52.4 89.888 53.816C90.32 55.232 90.848 56.96 91.472 59H84.416C83.768 56.744 83.228 54.92 82.796 53.528C82.388 52.112 81.98 51.032 81.572 50.288C81.164 49.544 80.684 49.04 80.132 48.776C79.604 48.488 78.908 48.344 78.044 48.344L77.936 43.844C78.824 43.844 79.544 43.688 80.096 43.376C80.648 43.064 81.116 42.548 81.5 41.828C81.884 41.084 82.256 40.088 82.616 38.84C82.976 37.592 83.408 36.032 83.912 34.16H90.752ZM77.036 34.16V40.784C77.036 41.648 76.952 42.536 76.784 43.448C76.64 44.336 76.412 45.176 76.1 45.968C76.34 46.712 76.556 47.516 76.748 48.38C76.94 49.22 77.036 49.988 77.036 50.684V59H70.304V34.16H77.036ZM79.7 43.844V48.344H75.38V43.844H79.7ZM100.943 34.16V59H94.1751V34.16H100.943ZM108.647 34.16V38.696H100.655V34.16H108.647ZM115.019 34.16V59H108.251V34.16H115.019ZM126.324 34.16V59H119.628V34.16H126.324Z" fill="black"/>
</svg>
